<?xml version="1.0" encoding="UTF-8"?>
<svg version="1.1" xmlns="http://www.w3.org/2000/svg" width="800" height="800">
<path d="M0 0 C4.63123159 2.98313924 7.62667678 5.69763065 10.15234375 10.640625 C10.64089844 11.55585938 11.12945312 12.47109375 11.6328125 13.4140625 C16.35874781 25.3273227 15.24630274 39.35957692 15.1706543 51.92016602 C15.15211963 55.11677837 15.15014703 58.31310454 15.15039062 61.50976562 C15.14548433 63.53906503 15.13965993 65.56836247 15.1328125 67.59765625 C15.13169968 68.55477005 15.13058685 69.51188385 15.12944031 70.4980011 C15.12306046 71.37369247 15.1166806 72.24938385 15.11010742 73.15161133 C15.10629562 73.92434891 15.10248383 74.69708649 15.09855652 75.49324036 C14.96484375 77.265625 14.96484375 77.265625 13.96484375 78.265625 C12.11114764 78.35300145 10.25416834 78.37260653 8.3984375 78.36328125 C7.27373047 78.36005859 6.14902344 78.35683594 4.99023438 78.35351562 C3.80623047 78.34513672 2.62222656 78.33675781 1.40234375 78.328125 C0.21447266 78.32361328 -0.97339844 78.31910156 -2.19726562 78.31445312 C-5.14327851 78.30262175 -8.08919306 78.28613787 -11.03515625 78.265625 C-11.04102249 77.64001678 -11.04688873 77.01440857 -11.05293274 76.36984253 C-11.11695353 69.84815417 -11.20139597 63.3269553 -11.29760742 56.80566406 C-11.33082572 54.3731126 -11.35886724 51.94048463 -11.3815918 49.5078125 C-11.41519383 46.00748142 -11.46751459 42.50784945 -11.5234375 39.0078125 C-11.52982742 37.92321747 -11.53621735 36.83862244 -11.5428009 35.72116089 C-11.64939485 30.22507832 -11.77704644 25.92741134 -15.03515625 21.265625 C-19.11332176 18.75598469 -21.05530989 18.06965573 -25.78515625 19.015625 C-26.85765625 19.428125 -27.93015625 19.840625 -29.03515625 20.265625 C-30.02515625 20.595625 -31.01515625 20.925625 -32.03515625 21.265625 C-33.85658623 24.74240485 -34.2972344 27.71797816 -34.35400391 31.60668945 C-34.3738736 32.6473909 -34.39374329 33.68809235 -34.41421509 34.7603302 C-34.4315419 36.42777534 -34.4315419 36.42777534 -34.44921875 38.12890625 C-34.4685849 39.27602585 -34.48795105 40.42314545 -34.50790405 41.60502625 C-34.56760092 45.2626506 -34.61404627 48.92030659 -34.66015625 52.578125 C-34.69834508 55.06056047 -34.73739733 57.54298282 -34.77734375 60.02539062 C-34.87329444 66.10535212 -34.95837103 72.18539289 -35.03515625 78.265625 C-39.18097512 78.29449251 -43.32676841 78.31237827 -47.47265625 78.328125 C-49.24866211 78.34069336 -49.24866211 78.34069336 -51.06054688 78.35351562 C-52.18525391 78.35673828 -53.30996094 78.35996094 -54.46875 78.36328125 C-56.0319397 78.37113647 -56.0319397 78.37113647 -57.62670898 78.37915039 C-60.03515625 78.265625 -60.03515625 78.265625 -61.03515625 77.265625 C-61.13014271 74.83166481 -61.16074042 72.42619548 -61.14868164 69.99194336 C-61.14882767 69.23101883 -61.14897369 68.4700943 -61.14912415 67.68611145 C-61.14842487 65.15920202 -61.1406318 62.63236538 -61.1328125 60.10546875 C-61.13094837 58.3581191 -61.12952445 56.61076893 -61.12852478 54.86341858 C-61.12469918 50.25530566 -61.11486854 45.64722405 -61.1038208 41.03912354 C-61.09360759 36.34053979 -61.08902735 31.64195101 -61.08398438 26.94335938 C-61.0732463 17.71743192 -61.05564917 8.49153596 -61.03515625 -0.734375 C-53.77515625 -0.734375 -46.51515625 -0.734375 -39.03515625 -0.734375 C-38.37515625 1.905625 -37.71515625 4.545625 -37.03515625 7.265625 C-36.06578125 6.358125 -35.09640625 5.450625 -34.09765625 4.515625 C-24.28718948 -3.73142077 -11.76479355 -5.87074846 0 0 Z " fill="#F8F8F8" transform="translate(210.03515625,394.734375)"/>
<path d="M0 0 C2.51295329 1.90017497 4.64018517 3.98041407 6.74609375 6.3203125 C7.42671875 7.0628125 8.10734375 7.8053125 8.80859375 8.5703125 C16.73639812 19.82268 17.22361542 33.20304545 15.28515625 46.4765625 C12.52915535 56.72240114 5.69062331 65.07126956 -3.296875 70.5703125 C-10.48452531 74.35182291 -17.44682114 75.71146058 -25.50390625 75.6953125 C-26.34074951 75.69370117 -27.17759277 75.69208984 -28.03979492 75.69042969 C-38.64650023 75.48102604 -47.05285378 72.14986122 -54.87890625 64.8828125 C-56.05453125 63.614375 -56.05453125 63.614375 -57.25390625 62.3203125 C-58.27484375 61.2375 -58.27484375 61.2375 -59.31640625 60.1328125 C-66.92529794 49.08764714 -67.87289208 35.53682823 -65.60546875 22.62890625 C-62.67622507 12.02604556 -56.78976818 3.91559464 -47.25390625 -1.6796875 C-32.10657169 -8.80784494 -14.28568299 -9.60043887 0 0 Z M-35.25390625 15.3203125 C-40.99842554 23.4156149 -40.95231151 32.76574048 -40.25390625 42.3203125 C-39.04371843 47.48334207 -37.43720609 51.16518647 -33.62890625 54.8828125 C-29.46966096 57.40025044 -26.08894167 57.95175369 -21.25390625 57.3203125 C-15.82802851 54.71171743 -13.78315502 51.5661618 -11.25390625 46.3203125 C-8.40510803 37.8498858 -9.22276821 26.20651331 -13.0625 18.24609375 C-15.75964134 13.88645218 -18.1611331 12.60694152 -23.06640625 11.3203125 C-27.83813372 10.96852163 -31.55841397 12.2967279 -35.25390625 15.3203125 Z " fill="#F8F8F8" transform="translate(127.25390625,398.6796875)"/>
<path d="M0 0 C8.38490912 6.86038019 11.84473647 14.62878573 13.13513184 25.49234009 C13.30066289 28.77741499 13.35574764 32.04286445 13.359375 35.33203125 C13.37591125 36.51222336 13.39244751 37.69241547 13.40948486 38.90837097 C13.45752976 42.6264692 13.47923929 46.34415981 13.5 50.0625 C13.52819598 52.60483774 13.5581284 55.14715685 13.58984375 57.68945312 C13.66327715 63.87626845 13.71311692 70.06286322 13.75 76.25 C6.49 76.25 -0.77 76.25 -8.25 76.25 C-8.91 74.27 -9.57 72.29 -10.25 70.25 C-10.99765625 70.67152344 -11.7453125 71.09304688 -12.515625 71.52734375 C-13.50046875 72.07519531 -14.4853125 72.62304688 -15.5 73.1875 C-16.47453125 73.73277344 -17.4490625 74.27804687 -18.453125 74.83984375 C-25.784613 78.53630628 -35.40141246 78.60280017 -43.24609375 76.4140625 C-50.3570198 73.18871096 -54.25165853 68.33751665 -57.625 61.4375 C-59.30888705 52.84967605 -58.88968745 44.83992348 -54.25 37.25 C-47.31179673 28.72677616 -36.99453938 24.56398189 -26.25 23.25 C-23.79245859 23.18421998 -21.33331222 23.16430838 -18.875 23.1875 C-17.00714844 23.20103516 -17.00714844 23.20103516 -15.1015625 23.21484375 C-13.69003906 23.23224609 -13.69003906 23.23224609 -12.25 23.25 C-12.6625 22.13625 -13.075 21.0225 -13.5 19.875 C-13.84804688 18.93527344 -13.84804688 18.93527344 -14.203125 17.9765625 C-15.57699784 15.71069759 -16.79162141 15.18462682 -19.25 14.25 C-29.24510701 11.80184303 -38.79929835 15.01016366 -48.25 18.25 C-48.92610423 16.35751181 -49.59050439 14.4608398 -50.25 12.5625 C-50.62125 11.50675781 -50.9925 10.45101563 -51.375 9.36328125 C-52.1891857 6.46637944 -52.42709796 4.23299377 -52.25 1.25 C-35.64100444 -5.25466366 -16.45312651 -8.85937582 0 0 Z M-31.75 44.5 C-33.716517 48.10528117 -33.90108158 50.19882575 -33.25 54.25 C-31.23312111 57.30784864 -29.76646023 58.90712388 -26.125 59.73046875 C-22.06551407 59.98418662 -19.10191838 59.60818838 -15.8125 57.125 C-10.89174882 51.60415722 -10.96820364 46.29490899 -11.25 39.25 C-19.10649946 38.81531663 -25.69390292 39.04951263 -31.75 44.5 Z " fill="#F7F7F7" transform="translate(288.25,396.75)"/>
<path d="M0 0 C4.95 0 9.9 0 15 0 C15.33 14.85 15.66 29.7 16 45 C18.64 42.69 21.28 40.38 24 38 C32.59783377 33.21543142 41.77329427 32.72106673 51.1875 35.125 C59.99763827 38.1408318 65.79598474 43.76610029 70 52 C75.73458138 64.92952198 76.03031046 79.87893332 71.26171875 93.1640625 C67.11214433 102.49096972 61.38878945 109.36018391 51.875 113.3125 C43.60824114 116.44224736 35.17350616 116.85509298 26.62109375 114.28515625 C21.45841791 111.93113771 17.75679707 108.17943674 14 104 C13.93941406 104.63808594 13.87882813 105.27617187 13.81640625 105.93359375 C13.73261719 106.75988281 13.64882813 107.58617187 13.5625 108.4375 C13.48128906 109.26121094 13.40007813 110.08492188 13.31640625 110.93359375 C13 113 13 113 12 114 C7.71 114 3.42 114 -1 114 C-0.67 76.38 -0.34 38.76 0 0 Z M18.4453125 55.8046875 C14.44992676 61.87335449 14.60318629 68.22483404 14.5625 75.25 C14.52962891 76.23613281 14.49675781 77.22226562 14.46289062 78.23828125 C14.40266611 86.54926484 16.48242298 93.38985516 22.375 99.4375 C28.76832131 103.2430484 33.7631062 105.03433312 41.1953125 103.56640625 C47.23824622 101.9174023 51.43486918 99.1906827 55 94 C59.90781934 84.21340167 60.57953248 73.18401302 57.875 62.625 C55.62264192 56.25554086 52.18647028 50.92996061 46.25 47.5 C35.0094699 42.6948879 25.9284906 47.20773405 18.4453125 55.8046875 Z " fill="#F8F8F8" transform="translate(533,359)"/>
<path d="M0 0 C8.45934481 7.6350003 12.70979687 18.88769409 13.37109375 30.03125 C13.16846807 41.378288 9.4664973 50.00092322 3.04345703 59.11279297 C2.01701436 61.38812837 2.01701436 61.38812837 3.38647461 63.81445312 C3.98983643 64.73162109 4.59319824 65.64878906 5.21484375 66.59375 C5.85744141 67.60050781 6.50003906 68.60726562 7.16210938 69.64453125 C7.85111328 70.68996094 8.54011719 71.73539062 9.25 72.8125 C10.6037072 74.87808145 11.94671471 76.95072692 13.27734375 79.03125 C13.8818335 79.94841797 14.48632324 80.86558594 15.10913086 81.81054688 C16.3125 84.3125 16.3125 84.3125 16.15869141 86.52246094 C14.79254585 89.41241455 12.444658 90.45189982 9.75 92.0625 C8.73808594 92.67609375 7.72617187 93.2896875 6.68359375 93.921875 C5.90113281 94.38078125 5.11867188 94.8396875 4.3125 95.3125 C1.45286545 92.61858552 -0.68611839 89.98403699 -2.703125 86.6171875 C-3.49589844 85.29654297 -3.49589844 85.29654297 -4.3046875 83.94921875 C-4.84351563 83.03785156 -5.38234375 82.12648438 -5.9375 81.1875 C-6.76894531 79.80884766 -6.76894531 79.80884766 -7.6171875 78.40234375 C-11.6875 71.57504618 -11.6875 71.57504618 -11.6875 69.3125 C-12.863125 69.8075 -14.03875 70.3025 -15.25 70.8125 C-24.90699528 74.01118929 -36.4191584 73.56237371 -45.6875 69.3125 C-56.87425962 63.43128284 -63.87653697 56.00194735 -68.6875 44.3125 C-71.67485607 33.89763054 -70.79613377 20.83244661 -65.6875 11.3125 C-59.55015765 0.30761028 -50.59433961 -5.91216061 -38.6875 -9.6875 C-24.69087657 -13.04668962 -11.14692627 -8.61574651 0 0 Z M-46.6875 9.3125 C-53.59971396 15.79443558 -56.74081794 21.77751112 -57.125 31.25 C-56.86583568 39.83481818 -53.63883926 46.28335367 -47.79296875 52.515625 C-41.53606687 57.85546705 -34.47672795 60.12012659 -26.3125 59.65625 C-17.42451817 58.49234762 -11.75736803 54.92975092 -5.6875 48.3125 C-0.20747375 40.82464044 -0.10412632 33.32238242 -0.6875 24.3125 C-2.17590566 16.61819958 -7.06846015 10.91974719 -13.375 6.5 C-24.32733681 0.19979863 -36.99590127 1.37021474 -46.6875 9.3125 Z " fill="#F8F8F8" transform="translate(432.6875,402.6875)"/>
<path d="M0 0 C-1.0388092 6.1112924 -2.15730278 12.07704464 -4 18 C-4.66644531 17.7834375 -5.33289062 17.566875 -6.01953125 17.34375 C-12.67542804 15.33301754 -19.03369263 14.09390935 -26 15 C-26.99 15.66 -27.98 16.32 -29 17 C-29.58350505 19.45709375 -29.58350505 19.45709375 -29 22 C-25.76635583 25.04909376 -21.84770007 26.31337859 -17.75 27.8125 C-9.21459429 31.09463649 -2.55629107 34.79867608 2 43 C4.08486175 49.25458524 4.21691582 57.28288478 1.5 63.375 C-3.14947713 71.00078602 -9.57410732 75.04723115 -18.109375 77.33984375 C-30.61190986 79.4612578 -43.25952006 79.10188395 -55 74 C-55.33 73.67 -55.66 73.34 -56 73 C-55.94338874 66.65953874 -54.21203894 60.8848583 -52 55 C-51.32453125 55.20496094 -50.6490625 55.40992188 -49.953125 55.62109375 C-49.06109375 55.89050781 -48.1690625 56.15992188 -47.25 56.4375 C-46.36828125 56.70433594 -45.4865625 56.97117187 -44.578125 57.24609375 C-43.72734375 57.49488281 -42.8765625 57.74367188 -42 58 C-41.36707031 58.19335938 -40.73414063 58.38671875 -40.08203125 58.5859375 C-37.18538837 59.16200531 -34.38846203 59.1707141 -31.4375 59.1875 C-30.30183594 59.20167969 -29.16617187 59.21585937 -27.99609375 59.23046875 C-24.8175557 59.23171839 -24.8175557 59.23171839 -22 57 C-21.68565288 53.29698068 -21.68565288 53.29698068 -23 50 C-26.77861928 47.77982926 -30.88436436 46.47337791 -35 45 C-43.01283117 41.61429669 -50.49224298 37.37437487 -54 29 C-55.92118757 21.40995615 -54.84805173 14.79247126 -51 8 C-38.40587288 -7.56665402 -17.1084428 -6.77083249 0 0 Z " fill="#F8F8F8" transform="translate(56,396)"/>
<path d="M0 0 C7.50356594 5.94383594 10.14248207 13.53774974 12.7109375 22.52734375 C12.7109375 27.80734375 12.7109375 33.08734375 12.7109375 38.52734375 C-5.1090625 38.52734375 -22.9290625 38.52734375 -41.2890625 38.52734375 C-38.28863342 51.79352466 -38.28863342 51.79352466 -29.2890625 60.52734375 C-19.49169571 65.30041988 -8.9821097 64.03542484 1.14453125 61.18359375 C3.7109375 60.52734375 3.7109375 60.52734375 6.7109375 60.52734375 C7.7009375 65.97234375 7.7009375 65.97234375 8.7109375 71.52734375 C-4.8017369 76.57990896 -20.17433736 79.09617695 -33.90234375 73.453125 C-43.03871373 69.16241495 -49.11604179 63.80892964 -53.2890625 54.52734375 C-57.60365594 40.27464181 -57.41433354 26.33893622 -50.96875 12.7421875 C-45.71960841 4.38084994 -37.63581481 -2.68105871 -27.90234375 -5.0546875 C-17.83986171 -6.66408298 -8.66316292 -5.57340003 0 0 Z M-36.7421875 14.33203125 C-39.59406954 18.3793992 -41.2890625 22.51302751 -41.2890625 27.52734375 C-28.0890625 27.52734375 -14.8890625 27.52734375 -1.2890625 27.52734375 C-2.33014299 18.15761935 -3.21189776 13.59348495 -10.2890625 7.52734375 C-20.10858149 1.63563236 -30.14377965 6.41978113 -36.7421875 14.33203125 Z " fill="#F7F7F7" transform="translate(666.2890625,398.47265625)"/>
<path d="M0 0 C4.95 0 9.9 0 15 0 C15.01458252 1.56363281 15.02916504 3.12726563 15.04418945 4.73828125 C15.10232781 10.5606123 15.17956053 16.38256291 15.26245117 22.20458984 C15.29562736 24.72047738 15.32368184 27.23643803 15.34643555 29.75244141 C15.38011518 33.37694344 15.43243991 37.00077979 15.48828125 40.625 C15.49467117 41.74302002 15.5010611 42.86104004 15.50764465 44.01293945 C15.64439834 51.33968063 16.18321495 57.56704322 21 63.4375 C25.40282026 66.87720333 30.67081533 66.56844637 36 66 C41.27272026 64.34722227 45.10439364 61.78888743 48 57 C50.26264303 50.8123954 50.34258134 44.9232964 50.4140625 38.37890625 C50.43342865 37.27900864 50.4527948 36.17911102 50.4727478 35.04588318 C50.53226908 31.55149967 50.57881927 28.05708274 50.625 24.5625 C50.66320501 22.18553294 50.7022582 19.80857935 50.7421875 17.43164062 C50.83794815 11.62120385 50.92208053 5.8107023 51 0 C55.95 0 60.9 0 66 0 C66 25.74 66 51.48 66 78 C61.71 78 57.42 78 53 78 C52.34 75.03 51.68 72.06 51 69 C50.50371094 69.47050781 50.00742187 69.94101562 49.49609375 70.42578125 C41.90786991 77.3804532 34.77339592 80.383279 24.3984375 80.2109375 C17.8766114 79.6373567 12.37093455 77.34069493 7.5703125 72.875 C2.02672788 66.25579448 -0.13270078 58.78644693 -0.11352539 50.29174805 C-0.11344986 49.17096359 -0.11337433 48.05017914 -0.11329651 46.89543152 C-0.10813522 45.6963063 -0.10297394 44.49718109 -0.09765625 43.26171875 C-0.0962413 42.02581497 -0.09482635 40.78991119 -0.09336853 39.51655579 C-0.08872618 36.24341655 -0.07975311 32.97032713 -0.06866455 29.69720459 C-0.05840404 26.35217752 -0.05394631 23.00714827 -0.04882812 19.66210938 C-0.03780907 13.10805099 -0.02054953 6.55403516 0 0 Z " fill="#F7F7F7" transform="translate(453,395)"/>
<path d="M0 0 C0 7.92 0 15.84 0 24 C-3.515625 24.16276042 -7.03125 24.32552083 -10.546875 24.48828125 C-14.08711591 25.01290971 -15.37139202 25.70918043 -18 28 C-18.66 28 -19.32 28 -20 28 C-22.3545892 33.6097055 -22.34476481 38.88541358 -22.4140625 44.8671875 C-22.43342865 45.90191193 -22.4527948 46.93663635 -22.4727478 48.00271606 C-22.53231842 51.29339467 -22.57883905 54.58410868 -22.625 57.875 C-22.66320048 60.11199405 -22.70225341 62.34897372 -22.7421875 64.5859375 C-22.83959897 70.05721498 -22.91934725 75.52834731 -23 81 C-31.58 81 -40.16 81 -49 81 C-49 54.93 -49 28.86 -49 2 C-42.07 2 -35.14 2 -28 2 C-26.33657163 3.66342837 -26.63951903 5.7825709 -26.4375 8.0625 C-26.31181641 9.44115234 -26.31181641 9.44115234 -26.18359375 10.84765625 C-26.12300781 11.55792969 -26.06242187 12.26820313 -26 13 C-25.63648438 12.46890625 -25.27296875 11.9378125 -24.8984375 11.390625 C-17.80965758 1.42998039 -12.51466065 0 0 0 Z " fill="#F7F7F7" transform="translate(360,392)"/>
<path d="M0 0 C37.84075279 -2.17475591 74.3904604 12.90901665 103 37 C131.76731438 63.11864657 151.45899942 96.94739501 156 136 C156.10941107 139.14754052 156.09548621 142.28858558 156.0625 145.4375 C156.05798828 146.26443359 156.05347656 147.09136719 156.04882812 147.94335938 C156.03715811 149.96227146 156.01922718 151.98114574 156 154 C152.7 154 149.4 154 146 154 C145.84144531 152.42734375 145.68289063 150.8546875 145.51953125 149.234375 C141.66579662 113.0825387 130.45446853 81.58880313 105 55 C104.32839844 54.26523437 103.65679688 53.53046875 102.96484375 52.7734375 C78.96445144 27.38236826 42.49179081 12.91381341 7.98828125 11.2109375 C5.24084764 11.01700101 2.68274617 10.60722641 0 10 C0 6.7 0 3.4 0 0 Z " fill="#B5622C" transform="translate(620,319)"/>
<path d="M0 0 C5.45329148 0.56095056 9.96666351 1.92413534 15 4.0625 C15.73984131 4.37413086 16.47968262 4.68576172 17.24194336 5.00683594 C37.47033257 13.69374168 54.37108343 25.53428052 70 41 C70.59868896 41.58185059 71.19737793 42.16370117 71.81420898 42.76318359 C88.23301659 58.86543605 100.14324985 80.11034426 107.125 101.9375 C107.33729248 102.59339111 107.54958496 103.24928223 107.76831055 103.92504883 C108.76469092 107.26849769 109.30844199 109.69576991 108 113 C105.36 113.33 102.72 113.66 100 114 C99.82984375 113.44763672 99.6596875 112.89527344 99.484375 112.32617188 C87.20459733 72.90677919 63.980096 40.88400337 27.203125 21.13671875 C19.97458495 17.3866127 12.49150526 14.18174852 5 11 C3.65737072 10.4249024 2.31491006 9.8494109 0.97265625 9.2734375 C-0.00832031 8.85320312 -0.98929688 8.43296875 -2 8 C-1.34 5.36 -0.68 2.72 0 0 Z " fill="#B5622D" transform="translate(682,306)"/>
<path d="M0 0 C10.68985258 3.77405147 19.94860789 12.26434876 28 20 C29.21429687 21.13695312 29.21429687 21.13695312 30.453125 22.296875 C43.21247634 34.57474139 54.72716681 49.7759875 62 66 C62 66.99 62 67.98 62 69 C59.35261084 70.4606285 58.10551666 71 55 71 C54.5875 70.20078125 54.175 69.4015625 53.75 68.578125 C41.28606968 44.87440037 22.43200925 18.28902156 -3 7 C-1.125 2.25 -1.125 2.25 0 0 Z " fill="#B5632C" transform="translate(738,302)"/>
</svg>
