<?xml version="1.0" encoding="UTF-8"?>
<svg version="1.1" xmlns="http://www.w3.org/2000/svg" width="800" height="800">
<path d="M0 0 C3.66798536 0.01707505 7.33531664 0.00691668 11.00327969 -0.01031494 C34.61940453 -0.10442074 57.82825018 1.42156177 81.03149414 6.14111328 C82.31830078 6.39787842 83.60510742 6.65464355 84.9309082 6.91918945 C151.3112022 20.39029529 223.90060214 50.87580313 271.70263672 100.62524414 C273.39244921 102.31458951 275.13864959 103.85497868 276.96118164 105.39892578 C281.98425177 109.76696314 286.70041796 114.43646681 291.40478516 119.14160156 C292.89541029 120.63004565 294.39386431 122.11028605 295.89282227 123.59033203 C302.20250252 129.86365894 307.92801701 136.41777959 313.46899414 143.39111328 C315.02825219 145.2272047 316.59003347 147.06116292 318.15649414 148.89111328 C361.98582723 201.55426544 389.06420351 265.81551506 401.21899414 332.89111328 C401.41775146 333.9872998 401.61650879 335.08348633 401.82128906 336.21289062 C404.37687547 350.89354603 405.78998987 365.29840988 405.80493164 380.18408203 C405.81139826 381.74701545 405.81812905 383.30994779 405.82510376 384.87287903 C405.83696249 388.12922961 405.84079711 391.38547512 405.83959961 394.6418457 C405.83943819 397.90997726 405.85316604 401.17754147 405.88061523 404.44555664 C406.36183057 462.6727733 393.65884283 519.76306578 368.46899414 572.39111328 C367.85701172 573.68662109 367.85701172 573.68662109 367.23266602 575.00830078 C355.11954297 600.52907911 339.98021037 624.25318774 322.46899414 646.39111328 C321.78063477 647.26251953 321.09227539 648.13392578 320.38305664 649.03173828 C319.10950453 650.63248757 317.82930777 652.22798402 316.54101562 653.81689453 C315.25867914 655.41003179 313.9900856 657.01447392 312.74414062 658.63623047 C305.837581 667.43879525 297.93523752 675.22743281 290.01342773 683.10742188 C287.59914991 685.51098041 285.19575004 687.92504412 282.79321289 690.34033203 C274.99599694 698.14500062 267.22857272 705.6644869 258.46899414 712.39111328 C257.00812105 713.56274882 255.54843429 714.73586549 254.09008789 715.91064453 C243.89699687 723.97068805 233.38561651 731.34563359 222.46899414 738.39111328 C219.02366168 734.2485232 216.04920767 729.88492513 213.08618164 725.39501953 C212.30499466 724.21716637 212.30499466 724.21716637 211.50802612 723.01551819 C209.82531819 720.47603951 208.14660141 717.93396402 206.46899414 715.39111328 C205.91828247 714.556828 205.3675708 713.72254272 204.8001709 712.86297607 C201.33783286 707.61581682 197.88117992 702.36492846 194.42602539 697.11303711 C183.99220819 681.25513663 173.52846507 665.4183515 162.96166992 649.64868164 C157.751386 641.86508703 152.62283238 634.03147609 147.52624512 626.17297363 C141.38853685 616.71396568 135.18011758 607.3020093 128.96899414 597.89111328 C127.06046053 594.99803575 125.15210507 592.10484075 123.24375916 589.2116394 C121.93594987 587.22893927 120.62805774 585.24629378 119.32008362 583.26370239 C114.91613596 576.58768661 110.51731768 569.90831529 106.12133789 563.22705078 C103.71669501 559.5732041 101.31172323 555.91957411 98.90649414 552.26611328 C98.3145224 551.36687134 97.72255066 550.46762939 97.11264038 549.5411377 C90.36300134 539.2913072 83.59051948 529.05733428 76.77368164 518.85205078 C76.14198563 517.90615082 75.51028961 516.96025085 74.85945129 515.98568726 C71.85291229 511.48522531 68.84313321 506.98697989 65.828125 502.4921875 C60.46380082 494.48178855 55.198108 486.43187209 50.12503052 478.23376465 C45.94129259 471.49323368 41.54129911 464.90382115 37.11853027 458.31854248 C34.4988785 454.41706144 31.88824613 450.50955334 29.27758789 446.60205078 C28.72628204 445.77706085 28.1749762 444.95207092 27.60696411 444.1020813 C21.09876757 434.35345251 14.66044557 424.55890931 8.21899414 414.76611328 C-2.75728475 398.08183125 -13.8000743 381.44332362 -24.90698242 364.84570312 C-30.84874357 355.96017071 -36.73109919 347.0398264 -42.54525757 338.07025146 C-48.42143709 329.00711993 -54.35462234 319.98182989 -60.29760742 310.96240234 C-62.16346333 308.12979187 -64.02693385 305.29562136 -65.89038086 302.46142578 C-74.74571411 289.00930501 -83.79822659 275.71127416 -93.03100586 262.51611328 C-93.43829926 261.92936829 -93.84559265 261.34262329 -94.26522827 260.73809814 C-96.88002226 257.05321648 -98.77967686 254.77125496 -103.34179688 253.78100586 C-108.71283691 253.12437638 -114.06311364 253.12373342 -119.46850586 253.07861328 C-120.62286133 253.04960937 -121.7772168 253.02060547 -122.96655273 252.99072266 C-130.85005059 252.93192434 -134.98414331 253.7996225 -141.18552876 258.69799328 C-143.05874528 261.05520944 -142.91521607 262.65736642 -142.92973328 265.64900208 C-142.94227268 266.74546303 -142.95481209 267.84192398 -142.96773148 268.97161102 C-142.96629513 270.18101601 -142.96485878 271.39042099 -142.96337891 272.63647461 C-142.97864939 274.55813068 -142.97864939 274.55813068 -142.99422836 276.51860809 C-143.02205467 280.08210247 -143.03109881 283.64543754 -143.03706622 287.20902658 C-143.0466656 291.05007197 -143.07329215 294.89100458 -143.09767151 298.73197937 C-143.14258824 306.26131059 -143.17100389 313.79061915 -143.19344765 321.32004756 C-143.21193934 327.43963076 -143.23621733 333.5591655 -143.26452637 339.67871094 C-143.35755673 359.8713274 -143.42945376 380.06391877 -143.48317146 400.25667763 C-143.51627793 412.63537392 -143.55705351 425.01402139 -143.60298431 437.39267647 C-143.66795196 454.94297735 -143.71988436 472.49325273 -143.75080013 490.04364872 C-143.75392034 491.81461144 -143.75704108 493.58557415 -143.76016235 495.35653687 C-143.76168236 496.22798692 -143.76320236 497.09943697 -143.76476842 497.9972946 C-143.77610403 504.14345259 -143.79437803 510.2895673 -143.8152771 516.43569946 C-143.84049896 523.92686043 -143.85479308 531.41794793 -143.85504514 538.90915293 C-143.85540928 542.73328805 -143.86053517 546.55725722 -143.87857246 550.38135338 C-143.89791353 554.52468576 -143.89390382 558.66766277 -143.88745117 562.81103516 C-143.90127854 564.63073429 -143.90127854 564.63073429 -143.91538525 566.48719501 C-143.90981263 567.59626807 -143.90424002 568.70534113 -143.89849854 569.84802246 C-143.8999651 570.80464531 -143.90143166 571.76126816 -143.90294266 572.74687958 C-143.4618063 575.88307809 -142.23843493 577.7571318 -140.53100586 580.39111328 C-140.53100586 581.05111328 -140.53100586 581.71111328 -140.53100586 582.39111328 C-139.72663086 582.70048828 -138.92225586 583.00986328 -138.09350586 583.32861328 C-135.53100586 584.39111328 -135.53100586 584.39111328 -134.53100586 585.39111328 C-130.35138072 585.70283309 -126.15830692 585.66973349 -121.96850586 585.70361328 C-120.7999707 585.73261719 -119.63143555 585.76162109 -118.42749023 585.79150391 C-108.72215229 585.9675313 -108.72215229 585.9675313 -100.53100586 581.39111328 C-97.53748883 575.69533946 -97.08746599 571.03803398 -97.09431458 564.66578674 C-97.0835842 563.70425452 -97.07285382 562.74272229 -97.06179827 561.75205272 C-97.02951362 558.539978 -97.01820453 555.32817849 -97.00683594 552.1159668 C-96.98795241 549.80953419 -96.96777321 547.50311189 -96.94639587 545.19670105 C-96.89208623 538.94116116 -96.85590583 532.6856321 -96.82296586 526.42994809 C-96.78545166 519.89022404 -96.73128405 513.35063852 -96.67887878 506.8110199 C-96.59268999 495.8365529 -96.51774493 484.86204786 -96.45019531 473.88745117 C-96.38060346 462.58563742 -96.30481086 451.28389319 -96.22070312 439.98217773 C-96.2155173 439.28505983 -96.21033148 438.58794193 -96.20498852 437.86969925 C-96.17893354 434.37232025 -96.15275691 430.87494218 -96.1265198 427.37756455 C-95.9091557 398.38220248 -95.7133181 369.3867165 -95.53100586 340.39111328 C-92.38176642 343.49395579 -89.61210442 346.45516082 -87.14819336 350.12939453 C-86.24302979 351.46925415 -86.24302979 351.46925415 -85.31958008 352.83618164 C-84.68810059 353.78243408 -84.05662109 354.72868652 -83.40600586 355.70361328 C-82.05211805 357.71161383 -80.69795027 359.71942563 -79.34350586 361.72705078 C-78.68608398 362.70512695 -78.02866211 363.68320312 -77.35131836 364.69091797 C-75.06134251 368.08779738 -72.73725286 371.46000817 -70.40600586 374.82861328 C-62.76641972 385.90924283 -55.24954188 397.07422641 -47.7069397 408.22096252 C-44.60062583 412.8114595 -41.49239984 417.40065491 -38.38256836 421.98876953 C-25.87890131 440.43680535 -13.39425583 458.89764947 -0.9230957 477.36767578 C1.40166049 480.81068091 3.72690855 484.25335318 6.05249023 487.69580078 C18.57234754 506.22928728 31.07931279 524.77027663 43.46899414 543.39111328 C54.87865945 560.53031737 66.40438569 577.50462526 78.70727539 594.02050781 C81.04036961 597.15996802 83.35518455 600.3126844 85.67041016 603.46533203 C91.06223203 610.80506424 96.49669917 618.11119572 101.96899414 625.39111328 C110.36099869 636.55518643 118.64088068 647.80045769 126.89477539 659.06689453 C133.67062647 668.30424395 140.54486961 677.45731704 147.50756836 686.5546875 C152.47438497 693.05528584 157.34377055 699.62131568 162.17553711 706.22265625 C166.57188763 712.2136026 171.07072732 718.1206315 175.59399414 724.01611328 C180.64391996 730.6178901 185.63351767 737.25522469 190.46899414 744.01611328 C190.97962402 744.72074707 191.49025391 745.42538086 192.01635742 746.15136719 C195.46899414 751.03502299 195.46899414 751.03502299 195.46899414 754.39111328 C190.1630183 757.11432735 184.82441762 759.76656726 179.46899414 762.39111328 C178.62240234 762.8086084 177.77581055 763.22610352 176.90356445 763.65625 C141.95750766 780.74227888 104.85174178 791.36170512 66.46899414 797.39111328 C65.37258606 797.58013718 65.37258606 797.58013718 64.25402832 797.77297974 C46.49148098 800.79643521 28.81652131 800.88888719 10.85620117 800.8371582 C7.52521568 800.82799378 4.194933 800.83485262 0.86401367 800.85766602 C-29.00604866 801.0610698 -57.31475908 797.96769824 -86.53100586 791.39111328 C-87.43850586 791.18824707 -88.34600586 790.98538086 -89.28100586 790.77636719 C-115.0297965 784.87716206 -140.82788522 776.05753154 -164.53100586 764.39111328 C-166.30290348 763.54296007 -168.07504948 762.69532559 -169.84741211 761.84814453 C-211.62151995 741.64319211 -247.84387372 714.26818775 -280.55297852 681.55444336 C-282.28896541 679.82066385 -284.03285696 678.0950979 -285.77709961 676.36962891 C-292.48381545 669.69647392 -298.66308948 662.82712845 -304.53100586 655.39111328 C-305.61472673 654.08501488 -306.70282173 652.78252486 -307.79663086 651.48486328 C-316.07001422 641.56577242 -323.46915969 631.20149834 -330.53100586 620.39111328 C-331.31942871 619.19156006 -331.31942871 619.19156006 -332.1237793 617.96777344 C-346.59523378 595.78859966 -358.6659683 571.95550318 -368.53100586 547.39111328 C-368.87679688 546.53662598 -369.22258789 545.68213867 -369.57885742 544.80175781 C-378.36680798 522.77312721 -384.34479685 499.5755459 -388.90600586 476.32861328 C-389.24559326 474.6049353 -389.24559326 474.6049353 -389.59204102 472.84643555 C-390.30134809 469.03690767 -390.92881399 465.21858766 -391.53100586 461.39111328 C-391.66197662 460.59871246 -391.79294739 459.80631165 -391.92788696 458.98989868 C-394.80089146 441.1942661 -395.03046001 423.53175219 -394.97705078 405.55737305 C-394.96788158 402.33022059 -394.97475956 399.10379328 -394.99755859 395.87670898 C-395.57213205 314.06110771 -369.0075693 232.39940263 -320.53100586 166.39111328 C-320.03600586 165.71064941 -319.54100586 165.03018555 -319.03100586 164.32910156 C-311.96087919 154.6237877 -304.50029046 145.37101552 -296.53100586 136.39111328 C-295.71889648 135.46685547 -294.90678711 134.54259766 -294.07006836 133.59033203 C-287.93859335 126.752867 -281.49601765 120.22428449 -275.03100586 113.70361328 C-274.16483643 112.82439209 -273.29866699 111.9451709 -272.40625 111.03930664 C-267.18671247 105.81289161 -261.79385635 100.99879605 -256.00756836 96.40625 C-253.5795058 94.43057686 -251.3014356 92.35723549 -249.03100586 90.20361328 C-200.6835847 46.23743697 -134.10591178 18.63505593 -70.84350586 6.07861328 C-69.69519287 5.84819336 -68.54687988 5.61777344 -67.36376953 5.38037109 C-63.42990191 4.63966083 -59.4889616 3.98646125 -55.53100586 3.39111328 C-54.2136998 3.19255737 -54.2136998 3.19255737 -52.86978149 2.98999023 C-35.23381344 0.43217992 -17.77788367 -0.08339496 0 0 Z M106.72680664 245.92626953 C102.87842355 251.11495157 102.31276768 254.06917869 102.28144836 260.42044067 C102.27353828 261.26023936 102.2656282 262.10003805 102.25747842 262.96528518 C102.23229804 265.7961751 102.21446403 268.62706182 102.19677734 271.45800781 C102.18069698 273.4815799 102.16431721 275.50514963 102.1476593 277.52871704 C102.00269372 296.04739386 101.927835 314.56675046 101.86874104 333.08587837 C101.82423772 346.76811073 101.74723507 360.44933574 101.62715656 374.13111794 C101.54553852 383.75678755 101.50256786 393.38218256 101.48743886 403.00818336 C101.47730367 408.75260886 101.45025618 414.49576712 101.38112831 420.23981094 C101.31667173 425.65588819 101.30044155 431.07007061 101.31962395 436.4864769 C101.31847893 438.46329168 101.30049955 440.44018802 101.26348114 442.41665649 C101.02934324 455.61002395 103.14692741 464.08746024 111.18217695 474.67047763 C113.26734817 477.45861254 115.13121816 480.38071174 117.03149414 483.29736328 C118.50892467 485.49644735 119.98810305 487.69435811 121.46899414 489.89111328 C127.59960472 499.02474463 133.58778442 508.22513325 139.35571289 517.59277344 C141.38801056 520.87564726 143.45564162 524.13565849 145.53149414 527.39111328 C145.91442627 527.99802002 146.2973584 528.60492676 146.69189453 529.23022461 C147.59034364 530.63499346 148.52576175 532.01601366 149.46899414 533.39111328 C149.79899414 533.39111328 150.12899414 533.39111328 150.46899414 533.39111328 C151.29632711 436.22342735 151.29632711 436.22342735 151.59237671 339.05300522 C151.59397231 335.68715866 151.59750876 332.32131927 151.6015625 328.95547485 C151.61518837 316.01384511 151.58603913 303.07339077 151.48786926 290.1321106 C151.46883124 287.36745666 151.45642846 284.60282947 151.44494629 281.83813477 C151.42395472 277.453328 151.3760507 273.06959832 151.30685043 268.6852951 C151.28507147 267.08657633 151.27139613 265.48772254 151.26660538 263.88886261 C151.25823422 261.71633427 151.21901743 259.54649054 151.17163086 257.37451172 C151.14925858 255.55714508 151.14925858 255.55714508 151.12643433 253.70306396 C150.09064657 248.48513231 147.21333009 245.64958397 142.90258789 242.53955078 C137.78324143 240.8272779 132.89234552 240.9575958 127.53149414 241.01611328 C125.94304688 240.99871094 125.94304688 240.99871094 124.32250977 240.98095703 C117.57800954 241.00620157 111.99829139 241.28121683 106.72680664 245.92626953 Z " fill="#FFFFFF" transform="translate(394.531005859375,-0.39111328125)"/>
</svg>
