<?xml version="1.0" encoding="UTF-8"?>
<svg version="1.1" xmlns="http://www.w3.org/2000/svg" width="800" height="800">
<path d="M0 0 C1.21601898 -0.00855011 1.21601898 -0.00855011 2.456604 -0.01727295 C4.17108883 -0.02668033 5.88559139 -0.03323989 7.60009766 -0.03710938 C10.15431872 -0.0466919 12.70769023 -0.07770326 15.26171875 -0.109375 C45.09008827 -0.30041613 73.30775137 8.0908535 99.453125 22.203125 C100.98646484 23.01523438 100.98646484 23.01523438 102.55078125 23.84375 C115.47329952 31.00939943 127.23166408 40.36059441 137.82373047 50.625 C138.99146237 51.75598876 140.16574274 52.88023145 141.34423828 54 C178.97031679 89.81529504 195.19864447 137.38689651 200.453125 188.203125 C200.52515137 188.89760742 200.59717773 189.59208984 200.67138672 190.30761719 C202.22213581 206.47325091 201.453125 223.13023951 201.453125 239.203125 C83.973125 239.203125 -33.506875 239.203125 -154.546875 239.203125 C-152.8779939 297.61396341 -142.8155171 351.72677097 -99.4765625 393.62109375 C-77.36850957 413.10565773 -52.18292367 424.0895089 -23.546875 430.203125 C-21.70416016 430.6053125 -21.70416016 430.6053125 -19.82421875 431.015625 C16.85252397 437.56017389 62.47346011 429.53214831 94.453125 410.203125 C95.07815918 409.82671875 95.70319336 409.4503125 96.34716797 409.0625 C106.04595439 403.12598192 114.44223179 396.258201 122.453125 388.203125 C123.26394531 387.39230469 124.07476562 386.58148437 124.91015625 385.74609375 C140.33714255 369.45454779 149.06778045 349.71635761 155.68945312 328.58154297 C158.50392819 319.90045619 161.93220838 310.57287534 170.140625 305.640625 C175.07233334 303.50044968 178.37202133 303.0909817 183.765625 303.515625 C184.85488281 303.59425781 185.94414062 303.67289062 187.06640625 303.75390625 C190.71720568 304.238153 193.94179522 305.11278812 197.453125 306.203125 C190.95948134 346.84377455 175.41031312 380.91164167 146.83886719 410.75439453 C145.59946871 412.0501293 144.37305268 413.3582532 143.1484375 414.66796875 C113.02488687 446.06046016 65.4170454 463.41108472 22.51358032 464.4683075 C18.45133938 464.52904871 14.39071404 464.53411671 10.328125 464.515625 C9.4728421 464.51346985 8.6175592 464.5113147 7.73635864 464.50909424 C-35.15008882 464.3360541 -76.66836322 451.45968343 -111.546875 426.203125 C-112.15499023 425.76468262 -112.76310547 425.32624023 -113.38964844 424.87451172 C-131.97016862 411.34768484 -145.34902893 395.56910093 -157.546875 376.203125 C-158.22363281 375.130625 -158.90039062 374.058125 -159.59765625 372.953125 C-177.7734251 342.64803545 -185.63303754 308.92197373 -189.5090332 274.18115234 C-189.61691162 273.23965332 -189.72479004 272.2981543 -189.8359375 271.328125 C-189.92568848 270.50570313 -190.01543945 269.68328125 -190.10791016 268.8359375 C-190.51130761 266.06325143 -190.51130761 266.06325143 -191.55053711 262.91381836 C-198.63042038 236.5459806 -191.93755303 205.80012282 -186.484375 179.640625 C-186.34329693 178.95695484 -186.20221886 178.27328468 -186.05686569 177.56889725 C-181.83368184 157.1300231 -177.02275657 136.74434283 -168.109375 117.765625 C-167.73159912 116.94618408 -167.35382324 116.12674316 -166.96459961 115.2824707 C-162.25912707 105.23501281 -156.68707475 95.79087208 -150.609375 86.515625 C-150.2388501 85.94610107 -149.8683252 85.37657715 -149.48657227 84.78979492 C-142.50892114 74.37422307 -134.01448722 65.22616341 -125.171875 56.390625 C-124.65075134 55.86909851 -124.12962769 55.34757202 -123.5927124 54.8102417 C-109.22393889 40.50485581 -93.61313504 29.40709436 -75.546875 20.203125 C-74.93489258 19.8829541 -74.32291016 19.5627832 -73.69238281 19.23291016 C-55.54984254 9.79979434 -35.69378282 4.24690244 -15.546875 1.203125 C-14.47671143 1.0280542 -13.40654785 0.8529834 -12.30395508 0.67260742 C-8.17400929 0.15653193 -4.1564258 0.023324 0 0 Z M-82.546875 61.203125 C-83.62066406 61.96109375 -84.69445312 62.7190625 -85.80078125 63.5 C-97.87853485 72.27640426 -108.81677747 83.08788761 -117.546875 95.203125 C-117.92231445 95.72390625 -118.29775391 96.2446875 -118.68457031 96.78125 C-135.93304731 120.98184846 -145.81147537 147.1635441 -151.546875 176.203125 C-151.73540039 177.10788574 -151.92392578 178.01264648 -152.11816406 178.94482422 C-153.9962374 188.81076197 -154.03073102 197.88024548 -154.546875 208.203125 C-48.616875 208.203125 57.313125 208.203125 166.453125 208.203125 C165.71525057 191.6544191 165.71525057 191.6544191 163.640625 175.390625 C163.46176758 174.32932373 163.28291016 173.26802246 163.09863281 172.17456055 C161.68304712 164.02747927 160.03188417 156.07232825 157.453125 148.203125 C157.19047852 147.39875 156.92783203 146.594375 156.65722656 145.765625 C150.21010614 126.38864429 142.1027577 108.32480776 129.453125 92.203125 C128.32583984 90.76066406 128.32583984 90.76066406 127.17578125 89.2890625 C124.98123189 86.55069687 122.73390926 83.86994874 120.453125 81.203125 C119.69644531 80.29949219 118.93976563 79.39585937 118.16015625 78.46484375 C98.2455809 55.4964836 69.02638789 40.88346361 39.453125 35.203125 C38.41027344 34.996875 37.36742187 34.790625 36.29296875 34.578125 C-4.32334633 27.86314294 -48.94905537 37.25704264 -82.546875 61.203125 Z " fill="#FFFFFF" transform="translate(192.546875,167.796875)"/>
<path d="M0 0 C2.52484301 1.67153958 4.80300588 3.44722704 7.09375 5.42578125 C7.79113281 6.01359375 8.48851562 6.60140625 9.20703125 7.20703125 C16.69143606 14.10308248 22.34931409 22.66750755 28.26318359 30.88964844 C31.17562184 34.92464558 34.13605898 38.92390609 37.09375 42.92578125 C38.25808505 44.50500742 39.42214693 46.08443504 40.5859375 47.6640625 C41.16311523 48.4473291 41.74029297 49.2305957 42.33496094 50.03759766 C44.11252272 52.45127192 45.88847586 54.86612246 47.6640625 57.28125 C53.11011895 64.68597588 58.56832766 72.08002491 64.09375 79.42578125 C70.22403521 87.57567075 76.27085259 95.78600735 82.31152344 104.00244141 C85.2360574 107.97900636 88.16504832 111.95228533 91.09375 115.92578125 C94.61946284 120.70926798 98.14413925 125.49350076 101.6640625 130.28125 C107.15436609 137.74634764 112.65623558 145.2017746 118.21875 152.61328125 C118.93683838 153.5710144 118.93683838 153.5710144 119.66943359 154.5480957 C122.26909788 158.01095374 124.88220678 161.46301494 127.5078125 164.90625 C128.06581543 165.64141846 128.62381836 166.37658691 129.19873047 167.1340332 C130.27448838 168.55097465 131.35409168 169.96500697 132.43798828 171.37573242 C136.09375 176.20072348 136.09375 176.20072348 136.09375 178.42578125 C140.84096837 173.99747391 144.63407777 168.97849327 148.53125 163.80078125 C149.23427246 162.87217285 149.93729492 161.94356445 150.66162109 160.98681641 C157.5548451 151.86046696 164.33709382 142.65344312 171.09375 133.42578125 C179.00295948 122.62406088 186.99454662 111.89693771 195.13012695 101.2644043 C200.11791773 94.73505318 205.01617294 88.14520452 209.875 81.51953125 C214.07701174 75.7929801 218.3242372 70.10215514 222.59375 64.42578125 C228.11337835 57.08554624 233.58309924 49.71068809 239.01977539 42.30883789 C243.31694942 36.46362879 247.66205782 30.65619069 252.03881836 24.87036133 C254.75305767 21.26807624 257.33961518 17.61665714 259.84375 13.86328125 C267.18518706 3.38552621 278.59655735 -3.59555093 291.15625 -6.07421875 C299.89321883 -7.14881919 308.76988957 -6.47789099 317.09375 -3.57421875 C315.84090672 -0.12074857 314.43801945 2.55901513 312.15234375 5.4296875 C311.28440186 6.53050659 311.28440186 6.53050659 310.39892578 7.65356445 C309.78259277 8.424021 309.16625977 9.19447754 308.53125 9.98828125 C307.24532802 11.61788564 305.96017046 13.24809352 304.67578125 14.87890625 C304.05396973 15.66587891 303.4321582 16.45285156 302.79150391 17.26367188 C300.72712421 19.89268346 298.71437885 22.55677608 296.71875 25.23828125 C293.33941048 29.7775054 289.91703977 34.28153642 286.47949219 38.77685547 C280.57059636 46.50462243 274.71275586 54.26205511 268.96875 62.11328125 C263.9043732 69.03135165 258.70951317 75.83063461 253.42016602 82.57788086 C249.00525004 88.2209092 244.6904913 93.93306327 240.40625 99.67578125 C235.73321646 105.93670408 231.00876865 112.14441971 226.15771484 118.26831055 C220.89302302 124.92086019 215.76633178 131.67853958 210.62207031 138.42431641 C208.39042849 141.34684031 206.14948892 144.26215422 203.90625 147.17578125 C203.10445312 148.21734375 202.30265625 149.25890625 201.4765625 150.33203125 C199.88802083 152.39453125 198.29947917 154.45703125 196.7109375 156.51953125 C191.43896126 163.36801485 186.17929604 170.22573018 180.93725586 177.09716797 C178.33332795 180.50835616 175.72093137 183.91178253 173.078125 187.29296875 C172.61470703 187.88787109 172.15128906 188.48277344 171.67382812 189.09570312 C170.42620698 190.69507649 169.17419439 192.29102147 167.921875 193.88671875 C164.09090786 199.20750644 164.54489415 205.11393901 165.09375 211.42578125 C166.74033362 217.63384651 171.31317261 222.27481508 175.36328125 227.078125 C178.63632106 231.02249545 181.63626228 235.16151217 184.65625 239.30078125 C189.72456986 246.23706792 194.87020765 253.10561373 200.09375 259.92578125 C208.1354484 270.43687112 215.98436201 281.0821028 223.80273438 291.75976562 C231.14563811 301.78195009 238.58110999 311.72303843 246.13232422 321.58935547 C251.10039488 328.09159511 255.96954599 334.66031549 260.8046875 341.26171875 C265.16652032 347.20249558 269.61429548 353.07331385 274.09375 358.92578125 C279.74728395 366.31219917 285.30845194 373.75772591 290.8046875 381.26171875 C295.16652201 387.20249787 299.61439067 393.07323863 304.09375 398.92578125 C313.29163701 410.94667175 322.32198343 423.08997595 331.09375 435.42578125 C330.76375 436.08578125 330.43375 436.74578125 330.09375 437.42578125 C317.46469379 441.37849363 303.19512593 440.80603287 291.09375 435.42578125 C287.82163728 433.70609262 284.97614994 431.73480056 282.09375 429.42578125 C281.27132813 428.77738281 280.44890625 428.12898438 279.6015625 427.4609375 C274.0892806 422.82827505 270.16685243 417.9757116 266.3359375 411.90625 C263.70220148 407.74446161 260.80370926 403.78142679 257.90625 399.80078125 C257.35090576 399.03580322 256.79556152 398.2708252 256.22338867 397.48266602 C255.08269857 395.91211276 253.94133537 394.34204818 252.79931641 392.77246094 C250.05512041 388.99673636 247.32496718 385.21089876 244.59375 381.42578125 C243.51048803 379.92572971 242.42715459 378.42572978 241.34375 376.92578125 C208.84375 331.92578125 208.84375 331.92578125 207.21899414 329.67602539 C206.13496584 328.17512575 205.05081858 326.67431203 203.96655273 325.17358398 C201.26787345 321.43804158 198.57123688 317.70105871 195.87890625 313.9609375 C190.26471822 306.16662278 184.61489617 298.40124525 178.90625 290.67578125 C174.09260171 284.16088175 169.33919786 277.6087636 164.64453125 271.0078125 C159.50482612 263.78207564 154.31416401 256.59338381 149.09375 249.42578125 C148.24369385 248.25692383 148.24369385 248.25692383 147.37646484 247.06445312 C145.72740783 244.80412805 144.06866061 242.55129686 142.40625 240.30078125 C141.64852295 239.26074951 141.64852295 239.26074951 140.87548828 238.19970703 C139.66377509 236.57088087 138.3849752 234.99232554 137.09375 233.42578125 C136.43375 233.42578125 135.77375 233.42578125 135.09375 233.42578125 C133.58982058 235.33055136 132.21094127 237.23763915 130.84375 239.23828125 C129.93896937 240.53357969 129.03263459 241.82779352 128.125 243.12109375 C127.63644531 243.81879883 127.14789062 244.51650391 126.64453125 245.23535156 C123.93142813 249.0675243 121.13601133 252.83860077 118.34375 256.61328125 C117.75174805 257.41483643 117.15974609 258.2163916 116.54980469 259.04223633 C115.3362707 260.68514201 114.12240169 262.32780026 112.90820312 263.97021484 C109.96580315 267.95227337 107.0300456 271.93922063 104.09375 275.92578125 C102.92711666 277.50913914 101.76044996 279.09247245 100.59375 280.67578125 C100.01625 281.45953125 99.43875 282.24328125 98.84375 283.05078125 C93.59375 290.17578125 93.59375 290.17578125 91.84350586 292.55102539 C90.67754194 294.1334631 89.51168896 295.71598256 88.34594727 297.29858398 C85.41943557 301.27130012 82.49097466 305.24255119 79.55859375 309.2109375 C73.81951518 316.98177999 68.10945381 324.77066821 62.46875 332.61328125 C57.92379123 338.93214954 53.29693727 345.18118958 48.60839844 351.39404297 C44.35644586 357.04242922 40.21560654 362.76674999 36.08764648 368.50610352 C32.14442008 373.98381399 28.16357906 379.43230317 24.15625 384.86328125 C23.58011963 385.64413086 23.00398926 386.42498047 22.41040039 387.22949219 C20.01733504 390.47087172 17.62249025 393.71093106 15.2265625 396.95019531 C13.97884253 398.63733534 12.73160347 400.32483113 11.48486328 402.01269531 C10.27863612 403.64569177 9.07130307 405.27787201 7.86279297 406.90917969 C4.90204361 410.9181237 2.03760615 414.95969387 -0.71875 419.11328125 C-8.13963761 429.70139632 -18.69195341 436.03443633 -31.28125 438.86328125 C-40.09629634 440.14476376 -49.56019511 439.54436837 -57.90625 436.42578125 C-53.80106619 430.11575284 -49.45660482 424.04592172 -44.90625 418.05078125 C-43.57222863 416.28307111 -42.23891172 414.51482914 -40.90625 412.74609375 C-40.23722656 411.85825195 -39.56820313 410.97041016 -38.87890625 410.05566406 C-35.86094506 406.03221383 -32.88238597 401.98021507 -29.90625 397.92578125 C-24.48825456 390.55026712 -19.01175367 383.22072943 -13.51171875 375.90625 C-9.27759494 370.26951789 -5.08016909 364.60721061 -0.90625 358.92578125 C4.51207141 351.55050403 9.9882434 344.22073332 15.48828125 336.90625 C19.72240506 331.26951789 23.91983091 325.60721061 28.09375 319.92578125 C33.51207141 312.55050403 38.9882434 305.22073332 44.48828125 297.90625 C48.72240506 292.26951789 52.91983091 286.60721061 57.09375 280.92578125 C62.51207141 273.55050403 67.9882434 266.22073332 73.48828125 258.90625 C78.3013394 252.49880406 83.06346653 246.05539119 87.80444336 239.59448242 C90.88690388 235.39994248 93.99167646 231.22409158 97.12890625 227.0703125 C98.13727539 225.73419922 98.13727539 225.73419922 99.16601562 224.37109375 C100.45217562 222.669677 101.74105274 220.97030929 103.03320312 219.2734375 C106.66692048 214.46562746 109.97533099 209.58384672 113.09375 204.42578125 C112.58328125 203.81734375 112.0728125 203.20890625 111.546875 202.58203125 C106.46916691 196.45997185 101.63525019 190.20465434 96.88964844 183.82421875 C93.02429764 178.63810545 89.07820186 173.52082452 85.09375 168.42578125 C80.19668788 162.16051088 75.38357913 155.84154121 70.6328125 149.46484375 C66.8501339 144.40125812 62.98584205 139.40561955 59.09375 134.42578125 C54.69925186 128.80312642 50.35725055 123.14842873 46.09375 117.42578125 C41.89231231 111.78658656 37.61396479 106.21470839 33.28125 100.67578125 C28.30758999 94.31565849 23.4221891 87.8968015 18.59375 81.42578125 C13.21702779 74.22184889 7.7589502 67.08971628 2.22485352 60.00610352 C-3.33486298 52.88862999 -8.82084559 45.71624924 -14.29736328 38.53466797 C-16.45632544 35.70475673 -18.61861921 32.87740114 -20.78125 30.05029297 C-21.85841034 28.64202235 -22.93523721 27.23349659 -24.01171875 25.82470703 C-26.82627629 22.14170136 -29.64581464 18.46265035 -32.47265625 14.7890625 C-33.35050781 13.64630859 -33.35050781 13.64630859 -34.24609375 12.48046875 C-35.36043211 11.03006009 -36.47622125 9.58076441 -37.59375 8.1328125 C-40.5213618 4.31872282 -43.28984723 0.46018648 -45.90625 -3.57421875 C-31.00018831 -9.72708942 -13.96167381 -7.56257331 0 0 Z " fill="#FFFFFF" transform="translate(468.90625,183.57421875)"/>
</svg>
