<?xml version="1.0" encoding="UTF-8"?>
<svg version="1.1" xmlns="http://www.w3.org/2000/svg" width="800" height="800">
<path d="M0 0 C3.86636183 3.16621583 5.71813586 6.1240639 6.46484375 11.09375 C6.64365712 17.21631982 5.86359648 22.31268576 3.68359375 28.0078125 C2.20074365 32.32926137 2.4177409 35.68991702 4.25 39.8125 C12.13739947 46.08656776 25.46587467 44.1378963 34.99609375 43.83398438 C41.40697605 43.71964515 46.25521372 44.01404713 52 47 C54.34611037 49.60478408 53.99612598 51.16746319 53.9140625 54.71484375 C53.78233867 56.84038741 53.62354718 58.95093246 53.39453125 61.06835938 C53.1929115 63.46165468 53.1929115 63.46165468 54 67 C58.52815007 71.68531572 64.80530397 73.02977671 71 74.125 C72.23242432 74.36573242 72.23242432 74.36573242 73.48974609 74.61132812 C77.47668808 75.38274646 81.47453213 76.08528132 85.4765625 76.7734375 C104.56991489 80.08306975 104.56991489 80.08306975 110.84765625 88.1171875 C112.61233985 91.00050104 113.32585596 93.69669421 114 97 C114.71542969 97.13535156 115.43085938 97.27070313 116.16796875 97.41015625 C126.98833851 99.74780405 135.81360782 104.49452139 144.625 111.125 C152.66044485 117.11400781 160.55084929 120.01092861 170.26367188 122.28369141 C196.11511958 128.50785114 225.52454119 138.99774185 242 161 C245 166.34899329 245 166.34899329 245 170 C231.55904591 175.97375737 219.4276307 171.6477049 206.15625 166.953125 C189.03181063 160.27163522 189.03181063 160.27163522 171.375 162.4375 C165.66682316 168.59632238 165.50563094 176.76970965 165.609375 184.78515625 C165.61725037 185.8842482 165.62512573 186.98334015 165.63323975 188.11573792 C165.92763066 205.93333678 167.57481291 223.71257084 169.01177979 241.46575928 C169.32721941 245.40079379 169.63052664 249.33672358 169.93388176 253.27270508 C171.3810069 272.0015416 172.9460692 290.7072208 175.0859375 309.37109375 C175.16511665 310.06477995 175.24429581 310.75846615 175.32587433 311.47317314 C186.13285758 405.23818792 227.553432 492.27578285 301.75 552.875 C302.62398438 553.55949219 303.49796875 554.24398437 304.3984375 554.94921875 C306.16883425 556.34480178 307.90280392 557.7875812 309.6015625 559.26953125 C351.32215517 595.64283669 407.20028267 616.82652945 460.35986328 629.36230469 C462.87429146 629.96963652 465.37293052 630.61828326 467.87109375 631.2890625 C468.60811523 631.48459717 469.34513672 631.68013184 470.10449219 631.8815918 C472.02291978 632.39357722 473.93929739 632.91322772 475.85546875 633.43359375 C479.11024493 634.01985778 480.9005262 634.1029429 484 633 C492.15521987 627.07261337 499.25772917 618.95598029 505.3125 610.9375 C512.02225401 603.60358283 521.61478781 595.63539907 531.76953125 594.76171875 C538.48143225 594.59801385 542.52975777 595.02164202 548 599 C546.30383853 609.68581729 540.98841091 616.02179877 533.8359375 623.859375 C530.70861208 627.50570336 528 631.05492819 528 636 C532.48860832 637.7711075 535.71784323 638.12779686 540.5 637.625 C541.7375 637.52316406 542.975 637.42132812 544.25 637.31640625 C546.58364158 637.11950524 548.91702921 636.9195395 551.25 636.71484375 C561.05936976 636.25502954 569.56767594 638.79615731 578.8984375 641.58984375 C585.51273089 643.51169323 591.37635089 644.93146076 597.90234375 642.16796875 C601.94699375 639.91591968 605.47324579 636.97978076 609 634 C611.16706316 635.00613647 612.99378379 635.99498885 614.86010742 637.49951172 C624.0269992 643.92731741 640.25749414 641.06978455 650.91088867 640.80810547 C653.55910841 640.74738074 656.20677182 640.71208833 658.85546875 640.6796875 C659.65462204 640.65276825 660.45377533 640.625849 661.27714539 640.59811401 C666.96738754 640.54783183 671.25840118 641.79019986 676 645 C679.06213915 648.36835306 679.9179164 650.28470003 680.4375 654.8125 C680.33560417 656.21222686 680.18713899 657.60910207 680 659 C679.92523437 659.77085937 679.85046875 660.54171875 679.7734375 661.3359375 C679.23981001 664.05834216 678.56472677 665.69800134 677 668 C667.13645079 673.59857567 655.14921577 674.95450767 644.14477539 676.90673828 C627.94930165 679.70897615 627.94930165 679.70897615 613.6875 687.5 C612.800625 687.995 611.91375 688.49 611 689 C607.4375 687.8125 607.4375 687.8125 604 686 C587.37391285 681.79506614 571.14689959 688.78920508 555.65112305 694.18164062 C546.23034428 697.41669756 537.5700602 699.1711882 527.625 699.3125 C518.46037598 699.58225903 509.50999803 700.68144635 500.4569397 702.03662109 C450.61240549 709.46856079 400.11809634 710.20832102 349.9888916 705.19598389 C347.05403345 704.90678517 344.11664821 704.64578316 341.1796875 704.37890625 C254.49539938 696.03670863 169.74941518 672.53203107 101 617 C99.86252305 616.11221311 98.72310152 615.22691364 97.58203125 614.34375 C77.1256247 598.48919517 56.99787198 581.44836288 41 561 C40.49629883 560.3620752 39.99259766 559.72415039 39.47363281 559.06689453 C14.91509136 527.95892516 -7.74928953 495.67681875 -27 461 C-27.49741699 460.10812988 -27.99483398 459.21625977 -28.50732422 458.29736328 C-46.25826996 426.40496382 -61.5501279 393.68767413 -73 359 C-73.35980957 357.91074219 -73.71961914 356.82148438 -74.09033203 355.69921875 C-81.15167318 333.96408195 -86.43390388 311.74576276 -91.88671875 289.56640625 C-93.94061311 281.21923846 -96.03312177 272.88332899 -98.19140625 264.5625 C-98.42599045 263.65258804 -98.66057465 262.74267609 -98.90226746 261.80519104 C-102.83221771 246.75749366 -107.88710141 232.48368079 -114.62402344 218.45678711 C-120.67374883 205.75784619 -121.34799346 195.43125107 -117 182 C-111.19714887 166.63951171 -98.00249947 156.03639805 -83.56640625 149.12890625 C-81 148 -81 148 -78 147 C-78.55429688 146.74605469 -79.10859375 146.49210938 -79.6796875 146.23046875 C-80.40414062 145.88628906 -81.12859375 145.54210937 -81.875 145.1875 C-82.59429687 144.85105469 -83.31359375 144.51460937 -84.0546875 144.16796875 C-86 143 -86 143 -88 140 C-88.70181342 134.08471548 -87.90202059 130.69211142 -84.47265625 125.8203125 C-79.47492618 119.64274695 -74.38891197 117.91040268 -67 116 C-56.37517402 113.4556366 -56.37517402 113.4556366 -48 107 C-44.75309527 101.06953363 -43.21525044 95.72642483 -44 89 C-45.29834916 85.84686633 -46.79851567 83.28783475 -48.75 80.5 C-50 78 -50 78 -50.1875 75.125 C-47.45999796 67.94736306 -39.56549461 63.94852639 -33.46875 59.76171875 C-25.93404408 54.50352528 -25.93404408 54.50352528 -21 47 C-20.42629092 42.57424421 -20.57991262 40.63649604 -23.0625 36.875 C-25.02591236 34.76141162 -27.09438718 33.20417691 -29.5 31.625 C-33.99621273 28.59152896 -36.97946015 24.23062616 -38.61328125 19.05859375 C-39.6378024 13.60482966 -39.80334254 8.66848067 -37.375 3.625 C-28.33281464 -6.36899435 -11.20339103 -7.32288687 0 0 Z M-28.25 5.5 C-31.42175941 10.03108488 -31.25420863 13.66161875 -31 19 C-30.34 19.66 -29.68 20.32 -29 21 C-29 19.02 -29 17.04 -29 15 C-27.97060303 15.00785522 -27.97060303 15.00785522 -26.92041016 15.01586914 C-23.82194936 15.03660956 -20.72350314 15.04965076 -17.625 15.0625 C-16.00464844 15.07506836 -16.00464844 15.07506836 -14.3515625 15.08789062 C-13.3203125 15.09111328 -12.2890625 15.09433594 -11.2265625 15.09765625 C-9.79691162 15.10551147 -9.79691162 15.10551147 -8.33837891 15.11352539 C-5.97675594 15.15642599 -5.97675594 15.15642599 -4 14 C-4.26214874 8.02336534 -4.26214874 8.02336534 -7.375 3.0625 C-14.5429189 -2.56943628 -22.49554524 -0.89383862 -28.25 5.5 Z M14 55 C14 56.32 14 57.64 14 59 C19.65394631 59.34615998 23.03006806 58.43425238 28 56 C23.96946465 51.96946465 18.79372329 52.53050618 14 55 Z M19 74 C18.73732432 82.16315201 20.62902793 89.43134696 25.75 95.9375 C30.04603331 100.43913692 34.61622856 102.8046089 40.8125 103.3125 C44.01812719 103.11737678 44.01812719 103.11737678 47 102 C46.43393721 97.30976546 45.81462495 92.65499974 45 88 C47.64 88.66 50.28 89.32 53 90 C45.99213653 79.23792396 30.68353898 77.25311808 19 74 Z M-17 101 C-15.4375 100.6875 -13.875 100.375 -12.3125 100.0625 C-10.54166667 99.70833333 -8.77083333 99.35416667 -7 99 C-5.85047852 98.73219727 -5.85047852 98.73219727 -4.67773438 98.45898438 C-1.84297289 97.97308434 0.64967262 97.97679918 3.51953125 98.12109375 C5.0519043 98.19360352 5.0519043 98.19360352 6.61523438 98.26757812 C8.19788086 98.35168945 8.19788086 98.35168945 9.8125 98.4375 C10.88693359 98.48970703 11.96136719 98.54191406 13.06835938 98.59570312 C15.71256304 98.7249753 18.35635027 98.85992436 21 99 C19.12594193 95.43928968 17.87804567 93.32140816 14 92 C3.9027928 90.16414415 -9.22907022 94.38179126 -17 101 Z M40.31213379 109.84872437 C30.39530169 112.81258734 20.47245663 115.40640715 10.375 117.6875 C1.48880705 119.70169602 -7.35195267 121.7839829 -16.125 124.25 C-16.97787598 124.48420654 -17.83075195 124.71841309 -18.70947266 124.9597168 C-22.68925403 126.10755653 -25.8802296 127.13318396 -29 130 C-22.13132807 129.33955078 -15.66605771 127.74901514 -9 126 C8.24099566 121.47637243 22.62079537 120.02336607 39 128 C38.979375 126.72125 38.95875 125.4425 38.9375 124.125 C38.875 120.25 38.875 120.25 40 118 C45.44384681 118.40580011 45.44384681 118.40580011 47.94140625 121.07421875 C48.74384766 122.36779297 48.74384766 122.36779297 49.5625 123.6875 C50.43648437 125.03714844 50.43648437 125.03714844 51.328125 126.4140625 C51.87984375 127.26742187 52.4315625 128.12078125 53 129 C55.97840123 133.08548998 55.97840123 133.08548998 60 136 C63.68012333 136.4000134 65.3489289 136.51029897 68.3125 134.1875 C71.39423834 130.19265401 71.10735066 126.70122233 71.0625 121.8125 C71.05347656 120.54019531 71.04445313 119.26789063 71.03515625 117.95703125 C71.02355469 116.98121094 71.01195312 116.00539063 71 115 C71.79664063 115.84884766 71.79664063 115.84884766 72.609375 116.71484375 C73.31578125 117.44832031 74.0221875 118.18179688 74.75 118.9375 C75.44609375 119.66839844 76.1421875 120.39929688 76.859375 121.15234375 C79.00599725 123.00517646 80.23532932 123.60771565 83 124 C81.44298069 119.32894208 78.91552627 115.91294315 76 112 C76.4640625 111.1646875 76.4640625 111.1646875 76.9375 110.3125 C78.05761821 107.87459567 78.56037364 105.63775814 79 103 C66.89842342 99.7576908 51.84457816 106.39697868 40.31213379 109.84872437 Z M26.6295166 150.90353394 C7.93534216 156.44341645 -10.98805665 161.78941153 -30.3503418 164.37060547 C-33.39886263 165.09474504 -35.4986936 166.11616381 -38 168 C-38 168.99 -38 169.98 -38 171 C-35.77360544 173.05513344 -33.54159776 174.22470698 -30.8125 175.5625 C-28 177 -28 177 -27 179 C-28.65 179.66 -30.3 180.32 -32 181 C-32 181.99 -32 182.98 -32 184 C-30.22743787 185.58022091 -30.22743787 185.58022091 -28 187 C-25.75 188.5 -25.75 188.5 -24 190 C-24 190.99 -24 191.98 -24 193 C-30.02600686 195.70953546 -36.16362828 196.14500941 -42.5390625 194.2421875 C-48.26539498 191.80993257 -52.75464461 189.27599433 -55.8125 183.6875 C-57.03538379 179.89012401 -57.24248356 176.96056487 -57 173 C-71.7847955 174.36137226 -88.75670449 177.79697818 -99.125 189.1875 C-103.36336001 194.32828595 -103.39831206 199.0752254 -103.34765625 205.56640625 C-102.5461579 213.48232811 -98.61789992 218.63702999 -93 224 C-92.97421875 222.68386719 -92.9484375 221.36773437 -92.921875 220.01171875 C-92.23358018 195.9762808 -92.23358018 195.9762808 -84 188 C-78.78884687 184.81727422 -72.71192354 185.56609223 -66.875 186.5 C-66.25625 186.665 -65.6375 186.83 -65 187 C-65 187.66 -65 188.32 -65 189 C-65.886875 189.061875 -66.77375 189.12375 -67.6875 189.1875 C-71.89472645 190.2194612 -73.48167576 191.48960863 -76 195 C-76.36957077 199.89681264 -74.84897663 202.54913825 -71.8125 206.1875 C-66.19739727 212.11200635 -60.56712827 215.52753846 -52.375 216.375 C-49.00791285 216.243942 -49.00791285 216.243942 -46.5625 214.5 C-44.28970962 210.86353539 -44.71718836 208.24217465 -45 204 C-44.20078125 203.93941406 -43.4015625 203.87882812 -42.578125 203.81640625 C-35.04933261 203.24202655 -27.52373628 202.63714523 -20 202 C-20 204.64 -20 207.28 -20 210 C-5.27849782 208.63379999 6.93139912 201.73490563 19.55126953 194.56811523 C25.51269662 191.2037134 31.52421827 188.25800284 38 186 C39.09308472 185.61593994 39.09308472 185.61593994 40.20825195 185.22412109 C46.30447018 183.21924854 51.79783651 182.58218972 58.1875 182.5 C69.9322135 182.13659676 81.39833053 180.831443 93 179 C93.98887207 178.8457959 94.97774414 178.6915918 95.99658203 178.53271484 C109.83666639 176.30202151 123.29458893 173.00594712 136.75 169.125 C137.45943756 168.92429901 138.16887512 168.72359802 138.89981079 168.51681519 C152.67313015 164.59018203 167.02245003 159.87218057 176 148 C178.88094962 142.16399273 178.83808633 136.15894078 177.1875 129.9375 C149.75723403 105.64212157 58.49660367 141.43596443 26.6295166 150.90353394 Z M-63.375 139.5 C-64.01566406 139.83386719 -64.65632813 140.16773438 -65.31640625 140.51171875 C-66.88333671 141.33026451 -68.44250241 142.16364513 -70 143 C-67.22396681 144.0943977 -66.02871263 144.00889467 -63.125 143.109375 C-62.09375 142.66078125 -61.0625 142.2121875 -60 141.75 C-58.96875 141.31171875 -57.9375 140.8734375 -56.875 140.421875 C-54.30623 139.1514507 -52.21130782 137.80731889 -50 136 C-55.26993722 135.54597464 -58.84008491 137.04792691 -63.375 139.5 Z M219 151 C219 151.99 219 152.98 219 154 C221.01880617 155.78795914 221.01880617 155.78795914 223.625 157.4375 C224.98625 158.35015625 224.98625 158.35015625 226.375 159.28125 C227.24125 159.8484375 228.1075 160.415625 229 161 C230.20863479 161.8120515 231.41703771 162.62444846 232.625 163.4375 C233.800625 164.2109375 233.800625 164.2109375 235 165 C235.79356801 163.25328412 235.79356801 163.25328412 236 161 C234.06963597 156.45796698 231.31468662 154.27945708 227 152 C224.29846959 151.41588532 221.77103378 151.19110578 219 151 Z M140.25 181.375 C135.11723789 183.88886303 130.66794774 184.52784695 125.0625 184.9375 C114.27574766 185.74365063 102.75310081 188.1234496 93 193 C93 193.66 93 194.32 93 195 C94.91478114 196.33716308 96.92406359 197.43799583 98.95703125 198.5859375 C101.20187515 200.13973003 102.418548 201.79705228 104 204 C103.33468262 203.85377197 102.66936523 203.70754395 101.98388672 203.55688477 C98.94792917 202.89053887 95.91147155 202.2264995 92.875 201.5625 C91.82828125 201.33240234 90.7815625 201.10230469 89.703125 200.86523438 C84.81614749 199.79814118 79.94897989 198.74491566 75 198 C74.608125 199.11375 74.21625 200.2275 73.8125 201.375 C72.90629012 203.95054386 72.33394588 204.80772813 69.9375 206.1875 C66.01716641 207.27184759 62.23817732 207.4620222 58.1875 207.625 C57.00510742 207.68300781 57.00510742 207.68300781 55.79882812 207.7421875 C53.8662462 207.83588844 51.93315624 207.91900779 50 208 C50.185625 208.77214844 50.37125 209.54429687 50.5625 210.33984375 C51 213 51 213 50 215.5625 C45.14828865 221.47552321 36.40383465 224.80441781 29 226 C27.14751826 226.08933954 25.2921276 226.13015891 23.4375 226.125 C22.04337891 226.12886719 22.04337891 226.12886719 20.62109375 226.1328125 C18 226 18 226 15.80078125 225.40625 C13.83382583 224.74284947 13.83382583 224.74284947 11.75 226.375 C9.77604204 229.33593694 9.21010062 231.54703358 9.328125 235.10546875 C10.41860902 239.80342609 12.75473598 243.90200382 15.15332031 248.06347656 C17.88899819 252.98185024 18.57406486 256.3610087 18 262 C16 264.875 16 264.875 14 267 C14 267.66 14 268.32 14 269 C13.09378906 269.02578125 12.18757813 269.0515625 11.25390625 269.078125 C2.87755091 269.4681352 -4.49138127 270.05495861 -11 275.75 C-12.49966244 279.1242405 -12.69375981 282.32511776 -13 286 C-14.98 285.67 -16.96 285.34 -19 285 C-20.98500545 290.40362595 -21.39715219 293.50652624 -19 299 C-17.3506149 301.65161563 -15.77601947 303.51754836 -13 305 C-10.43759306 305.0478548 -8.11569529 304.67551455 -5.58984375 304.25390625 C0.12525133 303.69360281 4.65473366 306.11161657 9.3125 309.1875 C17.10890849 317.34653214 18.35216964 327.88180403 18.1875 338.75 C18.18685547 339.57371094 18.18621094 340.39742187 18.18554688 341.24609375 C18.15625764 345.28800752 18.00164172 349.05753817 17 353 C11.41820166 351.24884758 8.80307635 349.32528394 5.94140625 344.1875 C4.05794473 339.81099191 3.57684505 335.90419726 4.625 331.1875 C6.33365384 328.46918708 8.15782929 327.42108535 11 326 C9.4182599 321.25477969 6.65218296 315.32609148 2 313 C-0.9550997 312.51893726 -3.06233931 312.45589873 -5.703125 313.98828125 C-10.82509621 318.08355102 -14.67538638 323.38150404 -18 329 C-18 329.66 -18 330.32 -18 331 C-16.50142065 332.1224537 -14.948761 333.17314372 -13.375 334.1875 C-4.3778644 340.38581075 -4.3778644 340.38581075 -2 345 C-1.54746331 348.07429819 -1.62308927 350.92189572 -2 354 C-2.99 354.33 -3.98 354.66 -5 355 C-3.6294063 357.74118741 -2.11487915 357.89379479 0.6875 359.0625 C6.50010964 361.95224468 9.37869672 365.07048565 12 371 C13.18037547 374.58632097 14.20879688 378.21234319 15.08911133 381.88378906 C16.40780266 387.08221225 18.30562511 390.09662553 22 394 C25.42465377 393.36811627 27.71213394 392.03508836 30.5625 390.0625 C31.32691406 389.53785156 32.09132812 389.01320313 32.87890625 388.47265625 C33.57886719 387.98667969 34.27882812 387.50070312 35 387 C35.99 386.34 36.98 385.68 38 385 C34.1033819 381.01011179 30.19450866 377.10721086 25.9375 373.5 C20.67237696 368.96181703 16.12087914 364.24175827 13 358 C17.29 358 21.58 358 26 358 C25.33270551 350.26896091 25.33270551 350.26896091 24.4375 342.5625 C24 339 24 339 24 335 C27.465 334.01 27.465 334.01 31 333 C31 332.01 31 331.02 31 330 C31.99 330 32.98 330 34 330 C33.855625 330.87140625 33.71125 331.7428125 33.5625 332.640625 C30.79811327 346.64798308 30.79811327 346.64798308 34 360 C37.7803228 359.74077787 39.53114893 359.46561761 42.265625 356.75 C42.92046875 355.8425 43.5753125 354.935 44.25 354 C48.40268456 348.33432184 48.40268456 348.33432184 52.6875 347.4375 C57.95131738 348.33135578 59.95669953 351.83513836 63 356 C63.66 356.89074219 64.32 357.78148437 65 358.69921875 C68.86595265 364.28770272 71.24462755 368.15454849 70 375 C66.44326148 377.37115901 64.10471139 377.62639222 60 377 C55.5505756 375.6436927 51.16471278 374.08235639 47 372 C48.37209767 376.29722898 50.22137656 378.45610312 53.625 381.375 C54.51703125 382.15359375 55.4090625 382.9321875 56.328125 383.734375 C57.97503699 385.13087932 59.62972463 386.51834476 61.296875 387.890625 C66.78633416 392.47205332 70.68624031 396.63878296 71.75 404 C71.98081002 406.59912157 71.96554726 408.99912945 71.875 411.625 C72.06449366 416.74132894 73.72317053 419.72317053 77.3125 423.3125 C80.37935996 425.23820276 82.38843458 425.84951811 86 426 C88.80067065 425.16513613 88.80067065 425.16513613 91 424 C91.26554687 424.56589844 91.53109375 425.13179687 91.8046875 425.71484375 C92.15789062 426.44832031 92.51109375 427.18179688 92.875 427.9375 C93.22304687 428.66839844 93.57109375 429.39929688 93.9296875 430.15234375 C94.8684977 432.16332459 94.8684977 432.16332459 97 433 C97.99 429.04 98.98 425.08 100 421 C106.04441853 421.37777616 110.34333841 423.06050359 115 427 C119.14766474 431.83894219 121.09535642 437.58233496 123.0078125 443.58203125 C124.025123 446.06122495 124.89862795 447.36136532 127 449 C127.66 449 128.32 449 129 449 C128.51139149 442.86830724 127.07359663 438.21547294 124.4375 432.6875 C121 425.36179061 121 425.36179061 121 422 C121.4439209 422.45439453 121.8878418 422.90878906 122.34521484 423.37695312 C124.34994859 425.42313518 126.36233216 427.4616229 128.375 429.5 C129.42300781 430.57314453 129.42300781 430.57314453 130.4921875 431.66796875 C131.49765625 432.68310547 131.49765625 432.68310547 132.5234375 433.71875 C133.450354 434.66137695 133.450354 434.66137695 134.39599609 435.62304688 C135.90059569 437.21712061 135.90059569 437.21712061 138 437 C138.2475 437.53625 138.495 438.0725 138.75 438.625 C140.0367419 441.17354264 140.0367419 441.17354264 142.0625 444.0625 C145.22010105 448.84983062 145.95968283 453.38041397 145 459 C140.26891996 465.400873 132.45633065 465.74365936 125 467 C125.71800781 467.54785156 126.43601563 468.09570312 127.17578125 468.66015625 C130.09391745 471.07780989 132.59480283 473.67629666 135.1875 476.4375 C141.07969829 482.47365427 146.99658436 486.92038605 155.625 487.4375 C161.01858661 487.81733004 164.25807653 490.21244332 168 494 C173.0957201 500.27937162 176.96921006 506.11512571 177.625 514.3125 C177.73714844 515.63701172 177.73714844 515.63701172 177.8515625 516.98828125 C177.90054688 517.65214844 177.94953125 518.31601562 178 519 C165.43302091 522.14174477 156.88428642 517.19274518 146.26782227 510.94360352 C141.13553703 507.96961811 135.81847326 505.30786921 130 504 C129.01 504.33 128.02 504.66 127 505 C137.38459257 515.38459257 152.87718693 520.31756989 166.07202148 526.14819336 C208.87715097 545.08514723 208.87715097 545.08514723 221 554 C221.98742187 554.70125 222.97484375 555.4025 223.9921875 556.125 C229.71311773 560.28567653 235.17138134 564.73743614 240.5625 569.3125 C241.15869141 569.81628174 241.75488281 570.32006348 242.36914062 570.83911133 C245.30696165 573.36913643 247.69538563 575.90018323 250 579 C250.66 579 251.32 579 252 579 C252.25523437 579.58523438 252.51046875 580.17046875 252.7734375 580.7734375 C254.11537414 583.20943713 255.5987384 584.7321548 257.625 586.625 C259.5390625 588.4140625 259.5390625 588.4140625 261 590 C261 590.66 261 591.32 261 592 C250.63980106 595.45339965 238.54278599 592.82237827 228.8125 588.625 C227 587 227 587 226.5 584.5 C227.06322446 581.68387771 227.78214868 580.75579896 230 579 C223.53371573 576.22873531 217.94947153 575.86373585 211 576 C211.1225399 581.8819153 212.87698639 584.97478158 216.94140625 589.2109375 C229.96748169 600.5315116 253.8843683 598.95592325 270 600 C267.69 603.96 265.38 607.92 263 612 C265.31 612.33 267.62 612.66 270 613 C270 613.66 270 614.32 270 615 C268.35 615.66 266.7 616.32 265 617 C265.37245844 619.56886775 265.67846237 620.72128397 267.671875 622.44921875 C272.98270883 625.69454858 272.98270883 625.69454858 279 627 C279.66 626.67 280.32 626.34 281 626 C287.93988365 625.43115708 287.93988365 625.43115708 291.5625 627.375 C294.52713549 630.56768438 296.87916139 634.01303078 299.25390625 637.66015625 C301.00355648 640.00476584 302.50539053 641.48736404 305 643 C309.53206137 643 312.14232 641.53381608 315.49609375 638.5390625 C317.65808027 636.32653603 319.55510885 633.92652153 321.41015625 631.453125 C323 630 323 630 328 629 C325.36 632.3 322.72 635.6 320 639 C322.93482127 640.37004265 322.93482127 640.37004265 325.3046875 638.85546875 C326.15289062 638.30503906 327.00109375 637.75460937 327.875 637.1875 C338.91771149 630.07896554 350.50039368 629.57580481 363.1875 632.3125 C371.80864304 634.46617934 379.8246962 638.22728719 387.86791992 641.9387207 C397.6483419 646.43838722 407.43654468 649.89808186 418 652 C423.30714721 653.10182987 428.3395896 654.36728667 433.4375 656.25 C442.31209897 659.33468819 449.5167967 658.72628532 458.1015625 655.0703125 C460.16219817 654.14185399 460.16219817 654.14185399 461 652 C453.54012751 646.94189654 445.08266869 645.66796128 436.40234375 643.73242188 C422.04844693 640.37087155 422.04844693 640.37087155 417 636 C416.23504637 633.86964252 416 632.25711664 416 630 C414.81664062 630.03480469 413.63328125 630.06960938 412.4140625 630.10546875 C395.90110883 630.44977991 395.90110883 630.44977991 388 627 C387.1853125 626.6596875 386.370625 626.319375 385.53125 625.96875 C373.89121238 620.65169578 364.07780306 611.61670459 357 601 C354.60689846 600.0209687 354.60689846 600.0209687 351.7421875 599.34375 C350.65317139 599.04936035 349.56415527 598.7549707 348.44213867 598.45166016 C347.26498291 598.1376123 346.08782715 597.82356445 344.875 597.5 C325.42379318 592.00481019 304.24478395 584.5230745 289.765625 569.71484375 C288.17110504 567.76776144 288.17110504 567.76776144 286 568 C285.74992187 567.43925781 285.49984375 566.87851562 285.2421875 566.30078125 C283.80389542 563.63677485 282.06444913 561.51117961 280.125 559.1875 C276.94195489 555.23913257 274.05606413 551.64849281 272 547 C272.3403125 545.515 272.3403125 545.515 272.6875 544 C273.33544599 541.08178426 273.33544599 541.08178426 271.83984375 539.45703125 C270.62696133 538.29387977 269.39433844 537.15115021 268.1484375 536.0234375 C263.97622894 532.09397562 260.56480003 527.47447787 257 523 C256.11093642 521.90213368 255.22160594 520.80448347 254.33203125 519.70703125 C245.25848253 508.43266433 237.09853131 496.79806069 230.66796875 483.8046875 C228.07007822 479.43633761 224.50871736 476.31986918 220.5625 473.1875 C216.69833962 469.94194424 213.86200974 466.13051955 211 462 C208.70424397 464.29575603 208.67660401 465.00842525 208.375 468.125 C208.189375 470.043125 208.189375 470.043125 208 472 C207.72027344 471.2265625 207.44054687 470.453125 207.15234375 469.65625 C204.00509079 461.47946417 200.47887159 455.38646389 193.4375 450.0625 C190.6323478 448.83974135 188.03145775 448.35249509 185 448 C186.16942867 440.983428 189.87112477 437.68697079 195 433 C194.6999707 432.34837891 194.39994141 431.69675781 194.09082031 431.02539062 C190.01090864 421.75487208 187.37076167 412.26230509 184.75 402.5 C184.27322657 400.74982086 183.79608869 398.99974096 183.31860352 397.24975586 C180.8971735 388.32775865 178.57049031 379.38563349 176.35546875 370.41015625 C176.14860443 369.57290009 175.94174011 368.73564392 175.72860718 367.87301636 C174.74310769 363.87193851 173.77083231 359.86821115 172.81738281 355.859375 C172.4707602 354.42837159 172.12408366 352.99738124 171.77734375 351.56640625 C171.33249634 349.69384155 171.33249634 349.69384155 170.87866211 347.78344727 C170.58870361 346.86490967 170.29874512 345.94637207 170 345 C169.34 344.67 168.68 344.34 168 344 C162.60109989 347.39359436 160.34844778 352.26379138 158 358 C158 358.66 158 359.32 158 360 C157.34 360 156.68 360 156 360 C156.42466731 357.2682748 156.86417697 354.54035608 157.3125 351.8125 C157.43044922 351.04357422 157.54839844 350.27464844 157.66992188 349.48242188 C158.41271625 345.04470164 159.32589516 341.73775438 162 338 C163.65 338.33 165.3 338.66 167 339 C169.91519551 333.23647361 169.91519551 333.23647361 169 327 C166.69 326.34 164.38 325.68 162 325 C162.2165625 324.37996094 162.433125 323.75992188 162.65625 323.12109375 C165.1354907 315.23573097 167.29412862 304.49360301 163.98046875 296.55859375 C163.65691406 296.04425781 163.33335937 295.52992188 163 295 C162.01 295.33 161.02 295.66 160 296 C160.144375 294.906875 160.28875 293.81375 160.4375 292.6875 C161.59743754 283.29252144 162.23537798 273.96821122 162.3125 264.5 C162.33860352 263.03433594 162.33860352 263.03433594 162.36523438 261.5390625 C162.42545716 250.54852828 162.42545716 250.54852828 158 241 C156.33382885 240.95936168 154.66611905 240.957279 153 241 C153.26554688 240.28457031 153.53109375 239.56914062 153.8046875 238.83203125 C157.89040158 227.30554591 159.17661775 216.48463741 159.3125 204.3125 C159.33022461 203.35045654 159.34794922 202.38841309 159.36621094 201.3972168 C159.35853994 193.9442005 158.46252786 186.6937918 154.25 180.375 C149.18538596 177.27995809 145.13856774 178.8208181 140.25 181.375 Z M18 212 C18 212.99 18 213.98 18 215 C18.66 214.67 19.32 214.34 20 214 C20 213.34 20 212.68 20 212 C19.34 212 18.68 212 18 212 Z M-76 218 C-77.77190909 219.35444301 -77.77190909 219.35444301 -79 221 C-77.02 221.99 -77.02 221.99 -75 223 C-74.01 221.68 -73.02 220.36 -72 219 C-73.83700789 218.22757731 -73.83700789 218.22757731 -76 218 Z M-22 237 C-20.92878906 237.42152344 -19.85757813 237.84304688 -18.75390625 238.27734375 C-17.35671698 238.83059319 -15.95958449 239.38398602 -14.5625 239.9375 C-13.85544922 240.21529297 -13.14839844 240.49308594 -12.41992188 240.77929688 C-7.11328125 242.88671875 -7.11328125 242.88671875 -6 244 C-9.63 244 -13.26 244 -17 244 C-17.33 244.66 -17.66 245.32 -18 246 C-16.26953843 248.40759871 -14.92120186 249.83393894 -11.94140625 250.37109375 C-6.92101047 250.51501741 -3.26799646 249.84533097 1 247 C3.00178863 245.19504569 3.00178863 245.19504569 4 243 C3.91468519 240.18461124 3.27560378 239.26576079 1.25 237.3125 C-3.25859291 234.68248747 -8.06931552 234.8394662 -13.1875 234.8125 C-14.41855469 234.79832031 -15.64960937 234.78414062 -16.91796875 234.76953125 C-20.10585705 234.67091766 -20.10585705 234.67091766 -22 237 Z M-48 246 C-47.72965366 248.43717258 -47.72965366 248.43717258 -47 251 C-44.25158089 253.27671738 -44.25158089 253.27671738 -41.5 252.8125 C-38.81968874 251.94139884 -37.6530101 251.26201382 -36 249 C-36 248.01 -36 247.02 -36 246 C-38.24512262 244.87743869 -39.51456649 244.86586238 -42 244.875 C-42.70125 244.87242187 -43.4025 244.86984375 -44.125 244.8671875 C-46.09153775 244.88622764 -46.09153775 244.88622764 -48 246 Z M-30 255 C-29.67 255.99 -29.34 256.98 -29 258 C-27.35 258 -25.7 258 -24 258 C-24 257.01 -24 256.02 -24 255 C-25.98 255 -27.96 255 -30 255 Z M2 255 C3 258 3 258 3 258 Z M-81 259 C-80.34 259.66 -79.68 260.32 -79 261 C-79 260.34 -79 259.68 -79 259 C-79.66 259 -80.32 259 -81 259 Z M-37.625 261.5 C-38.07875 261.995 -38.5325 262.49 -39 263 C-36.61837991 264.41385911 -36.61837991 264.41385911 -34 265 C-34 263.35 -34 261.7 -34 260 C-36.12364481 259.77390663 -36.12364481 259.77390663 -37.625 261.5 Z M-87 265 C-86 267 -86 267 -86 267 Z M-48 278 C-48 278.99 -48 279.98 -48 281 C-44.8016118 283.6653235 -42.81371525 284.9397248 -38.625 285.25 C-37.75875 285.1675 -36.8925 285.085 -36 285 C-36 283.68 -36 282.36 -36 281 C-37.24663331 280.49166409 -38.49749387 279.99368855 -39.75 279.5 C-40.79414062 279.08234375 -40.79414062 279.08234375 -41.859375 278.65625 C-44.26422695 277.80459673 -44.26422695 277.80459673 -48 278 Z M-72 291 C-72.95020416 293.239835 -72.95020416 293.239835 -73 296 C-70.79135579 298.87551522 -70.79135579 298.87551522 -68 301 C-67.34 301 -66.68 301 -66 301 C-66.66 298.03 -67.32 295.06 -68 292 C-69.32 291.67 -70.64 291.34 -72 291 Z M-47 291 C-47.33 292.65 -47.66 294.3 -48 296 C-46.54293274 296.50367757 -45.08429904 297.00282556 -43.625 297.5 C-42.40683594 297.91765625 -42.40683594 297.91765625 -41.1640625 298.34375 C-39.05790758 299.09673305 -39.05790758 299.09673305 -37 299 C-37.35494045 296.37344067 -37.72461964 294.42031739 -39.1875 292.1875 C-41.79361661 290.48004429 -43.9599355 290.79732903 -47 291 Z M-49 303 C-46.82575883 305.50037734 -45.26954202 306.43628586 -42 307 C-42.33 306.01 -42.66 305.02 -43 304 C-45.97 303.505 -45.97 303.505 -49 303 Z M-62 320 C-58.22794982 340.71391334 -58.22794982 340.71391334 -47 358 C-44.57490614 353.14981228 -48.41044794 344.03988497 -50 339 C-52.79945781 331.68964038 -56.19585371 325.37605317 -62 320 Z M-71 325 C-69.09297395 331.86492949 -66.74045044 338.3556782 -63.875 344.875 C-63.48320557 345.77629639 -63.09141113 346.67759277 -62.68774414 347.60620117 C-61.4660034 350.40749732 -60.23440969 353.20426606 -59 356 C-58.61473145 356.87640137 -58.22946289 357.75280273 -57.83251953 358.65576172 C-53.94751189 367.47474569 -49.9672496 376.23967249 -45.6875 384.875 C-45.37417725 385.51091064 -45.06085449 386.14682129 -44.73803711 386.80200195 C-39.71292846 397.29970472 -39.71292846 397.29970472 -31 404 C-32.85125061 398.24562004 -35.04649997 392.64903942 -37.26220703 387.02832031 C-38.64614372 383.50853873 -40.00166542 379.99525276 -41.25390625 376.42578125 C-43.56938829 369.86659344 -46.57124582 364.37595025 -50.48291016 358.66674805 C-54.23827985 353.01344472 -56.74510885 346.97975435 -59.1730957 340.65966797 C-61.69888528 334.20721927 -64.32075859 327.93168081 -71 325 Z M-16 348 C-16 348.66 -16 349.32 -16 350 C-14.68 349.34 -13.36 348.68 -12 348 C-13.32 348 -14.64 348 -16 348 Z M-11 365 C-11.33 365.66 -11.66 366.32 -12 367 C-9.26094655 368.36952673 -7.02912668 368.12621361 -4 368 C-3.34 367.67 -2.68 367.34 -2 367 C-2 366.34 -2 365.68 -2 365 C-4.97 365 -7.94 365 -11 365 Z M33 366 C32.67 367.32 32.34 368.64 32 370 C32.99 370.33 33.98 370.66 35 371 C35 369.35 35 367.7 35 366 C34.34 366 33.68 366 33 366 Z M-47 396 C-42.5731907 425.95676429 -18.70174229 455.8369617 -2.11328125 479.98828125 C2.11342568 486.14399469 6.249676 492.35729235 10.33422852 498.6081543 C10.77822998 499.28144775 11.22223145 499.95474121 11.6796875 500.6484375 C12.24792236 501.51734619 12.24792236 501.51734619 12.82763672 502.40380859 C14.09684468 504.13185559 15.38316618 505.59013798 17 507 C17.66 507 18.32 507 19 507 C19.03222656 507.93714844 19.06445312 508.87429688 19.09765625 509.83984375 C19.91728726 515.49771257 23.34035149 519.89083022 26.4375 524.5625 C27.07131592 525.53614502 27.70513184 526.50979004 28.3581543 527.51293945 C40.97718905 546.77894586 54.04442101 564.16530442 72.61669922 578.05102539 C80.49359402 584.00522043 87.29253382 590.66690613 93.5625 598.3125 C98.41977713 603.99878356 105.65575475 608.46994891 113 610 C116.34119156 610.14131928 119.65855129 610.11886576 123 610 C120.17780364 602.03144557 115.73064073 596.1263466 108.125 592.1875 C104.89552429 590.69772668 101.73763382 589.62109695 98.3125 588.6875 C93.69212753 587.26960792 91.48816174 584.64459555 88.5625 580.90625 C86.98039971 578.80298741 86.98039971 578.80298741 84.25 577.0625 C80.96891244 574.0548364 79.81975202 570.33297499 79 566 C79.33 565.34 79.66 564.68 80 564 C78.89591797 563.87044922 78.89591797 563.87044922 77.76953125 563.73828125 C69.83855272 562.59630416 69.83855272 562.59630416 66.1875 560 C62.58482425 555.05918754 59.5158959 549.79466841 56.6015625 544.421875 C54.05915489 539.8776869 54.05915489 539.8776869 49.83203125 537.13671875 C48.28371631 536.83846713 46.72826726 536.57503643 45.16796875 536.34765625 C41.49260746 535.75827399 39.72254552 534.54104248 37 532 C32.88992997 525.55981153 30.42418448 518.50385312 28 511.3125 C24.3433894 500.56803529 19.31008487 492.83360229 10 486 C9.34 486 8.68 486 8 486 C7.67 484.7625 7.34 483.525 7 482.25 C3.76504244 472.62071044 -2.84335903 464.96136015 -9.640625 457.61328125 C-20.49431039 445.5915668 -27.18230761 432.79211657 -33 417.75 C-37.79376925 405.29560338 -37.79376925 405.29560338 -47 396 Z M50 388 C50.37253906 388.88042969 50.74507812 389.76085937 51.12890625 390.66796875 C51.60199219 391.82941406 52.07507813 392.99085938 52.5625 394.1875 C53.03816406 395.33605469 53.51382813 396.48460937 54.00390625 397.66796875 C55.01536316 401.05139127 55.04283184 402.68416941 54 406 C46.95172531 406.58735622 42.35601754 405.19236392 35.93359375 402.3125 C27.77954155 398.65307486 27.77954155 398.65307486 19 398 C18.02138736 400.1050479 18.02138736 400.1050479 18 403 C19.10844105 405.08421156 20.37580186 406.93859079 21.7734375 408.83984375 C23 411 23 411 23.21875 414.05859375 C23.4765625 415.02925781 23.734375 415.99992187 24 417 C26.45718326 418.38495784 28.48541432 419.24792154 31.125 420.125 C39.70723908 423.28462568 47.62107388 427.33018949 55.62744141 431.73681641 C66.4463741 438.01883805 66.4463741 438.01883805 78.34692383 439.59838867 C78.89243896 439.40092041 79.4379541 439.20345215 80 439 C75.31518038 428.13392558 75.31518038 428.13392558 66.72265625 420.3125 C61.32210508 416.19779435 61.18194237 407.17365381 60.2644043 400.89892578 C59.44819592 395.85361051 57.73638143 392.32089799 55 388 C53.35 388 51.7 388 50 388 Z M18 424 C17.67 424.66 17.34 425.32 17 426 C18.65 425.67 20.3 425.34 22 425 C20.68 424.67 19.36 424.34 18 424 Z M18 446 C19.13499394 449.29148243 19.99283376 449.9959869 23.125 451.75 C24.07375 452.1625 25.0225 452.575 26 453 C24.61122646 449.64379729 23.08322035 447.92701272 20 446 C19.34 446 18.68 446 18 446 Z M111 446 C111 446.99 111 447.98 111 449 C113.8331162 450.62507196 113.8331162 450.62507196 117 452 C117.99 451.67 118.98 451.34 120 451 C117.75041666 448.41666771 117.75041666 448.41666771 115 446 C113.68 446 112.36 446 111 446 Z M68 451 C68.474375 451.78375 68.94875 452.5675 69.4375 453.375 C70.33898023 454.88948678 71.21179485 456.4235897 72 458 C71.44570312 457.7834375 70.89140625 457.566875 70.3203125 457.34375 C69.59585938 457.0653125 68.87140625 456.786875 68.125 456.5 C67.04605469 456.08234375 67.04605469 456.08234375 65.9453125 455.65625 C64.02632539 454.89344982 64.02632539 454.89344982 62 455 C62.66 457.64 63.32 460.28 64 463 C61.03 462.67 58.06 462.34 55 462 C55.9075 463.051875 56.815 464.10375 57.75 465.1875 C64.5846946 473.1693892 64.5846946 473.1693892 66 476 C64.35 476 62.7 476 61 476 C65.23302551 480.37181323 69.78529488 484.07728707 74.57421875 487.81640625 C77 490 77 490 79 494 C74.38 492.02 69.76 490.04 65 488 C69.34027202 496.68054404 79.54356191 499.73086849 87.97607422 503.60327148 C93.32641272 506.09760792 98.0617617 508.86786538 102.7890625 512.42578125 C107.2505371 515.60241422 112.4304593 519 118 519 C116.80406504 515.77097561 115.76284046 514.82924513 112.875 512.75 C111.92625 511.8425 110.9775 510.935 110 510 C110.13013563 508.08049943 110.26491462 506.16077246 110.453125 504.24609375 C109.56762841 499.85677876 105.47190228 497.2748061 102.1875 494.4921875 C99.44922722 491.37251244 99.9783335 490.00288622 100 486 C97.96791256 484.15158635 97.96791256 484.15158635 95.25 482.9375 C91.20850809 480.76791723 88.54523223 478.93354073 86 475 C88.97 475 91.94 475 95 475 C95 474.34 95 473.68 95 473 C94.195625 472.54625 93.39125 472.0925 92.5625 471.625 C90 470 90 470 89.33984375 467.8984375 C89.22769531 467.27195312 89.11554688 466.64546875 89 466 C89.78246094 465.59007812 90.56492188 465.18015625 91.37109375 464.7578125 C92.38300781 464.21898437 93.39492187 463.68015625 94.4375 463.125 C95.44683594 462.59132813 96.45617187 462.05765625 97.49609375 461.5078125 C100.10140442 460.24345886 100.10140442 460.24345886 101 458 C90.01721869 454.39501515 79.66243071 451.04256362 68 451 Z M36 460 C39.17320782 463.53586014 41.16743695 465.58578031 46 466 C42.82679218 462.46413986 40.83256305 460.41421969 36 460 Z M21 474 C21.66 474.66 22.32 475.32 23 476 C23 475.34 23 474.68 23 474 C22.34 474 21.68 474 21 474 Z M145 505 C145.33 505.66 145.66 506.32 146 507 C146.66 507 147.32 507 148 507 C148 506.34 148 505.68 148 505 C147.01 505 146.02 505 145 505 Z M160 512 C160 512.99 160 513.98 160 515 C160.66 515 161.32 515 162 515 C161.67 514.01 161.34 513.02 161 512 C160.67 512 160.34 512 160 512 Z M88 521 C90.39763185 523.39763185 91.33273498 523.34280586 94.625 523.625 C95.85089844 523.73714844 95.85089844 523.73714844 97.1015625 523.8515625 C97.72804687 523.90054688 98.35453125 523.94953125 99 524 C96.60236815 521.60236815 95.66726502 521.65719414 92.375 521.375 C91.14910156 521.26285156 91.14910156 521.26285156 89.8984375 521.1484375 C89.27195313 521.09945312 88.64546875 521.05046875 88 521 Z M129 524 C129.72945795 527.06114267 129.72945795 527.06114267 131.9375 528.625 C136.20458457 530.54083389 140.36800351 530.73916913 145 531 C142.52097896 528.06719206 140.030738 527.06128178 136.4375 525.8125 C134.98150391 525.29623047 134.98150391 525.29623047 133.49609375 524.76953125 C131.11679805 523.90179625 131.11679805 523.90179625 129 524 Z M108 528 C109.80961577 529.62831762 109.80961577 529.62831762 112 531 C112.99 530.67 113.98 530.34 115 530 C112.04622502 527.63019987 112.04622502 527.63019987 108 528 Z M91 536 C91.41688475 540.86365546 93.41219465 542.82938132 97 546 C97.52207031 546.47824219 98.04414063 546.95648437 98.58203125 547.44921875 C108.55318388 553.84428756 123.37966418 556.6555431 135 555 C137.64706466 554.24063137 139.59596346 553.37373517 142 552 C142 550.68 142 549.36 142 548 C135.99720473 544.6667525 129.8364904 542.09236088 123.375 539.8125 C122.67125244 539.56290527 121.96750488 539.31331055 121.24243164 539.05615234 C114.25988316 536.64152733 107.66055113 534.71498688 100.1875 534.8125 C99.08792969 534.81894531 97.98835937 534.82539062 96.85546875 534.83203125 C93.92613291 534.88019266 93.92613291 534.88019266 91 536 Z M146 539 C149.91385943 546.4636389 157.89126563 551.95216133 165.875 554.546875 C170.20166454 555.46947258 174.58979305 555.76489706 179 556 C179.495 554.515 179.495 554.515 180 553 C179.46632813 552.84144531 178.93265625 552.68289063 178.3828125 552.51953125 C170.63278308 550.09261892 163.56861625 546.76277263 156.8125 542.25 C153.174892 539.88666608 150.3076654 539.26922909 146 539 Z M166 539 C175.5407231 547.07953127 186.80927993 549.42341189 199 550 C201.33989717 549.62839644 201.33989717 549.62839644 203 549 C199.60180181 546.73453454 197.18533574 546.34878283 193.1875 545.625 C187.74945796 544.52731077 184.30539363 543.39899497 180 540 C176.8879988 538.95153608 174.01699055 538.89451328 170.75 538.9375 C169.41195313 538.95103516 169.41195313 538.95103516 168.046875 538.96484375 C167.37140625 538.97644531 166.6959375 538.98804688 166 539 Z M289 553 C288.34 554.32 287.68 555.64 287 557 C288.65 557 290.3 557 292 557 C291.67 555.68 291.34 554.36 291 553 C290.34 553 289.68 553 289 553 Z M171 563 C173.47698704 565.65391468 175.53411752 567.81169744 179 569 C181.33203812 569.0777346 183.66839059 569.08967728 186 569 C183.22458814 565.91620904 181.01059647 564.14588471 177 563 C173.79129767 562.83242243 173.79129767 562.83242243 171 563 Z M149 564 C149 564.66 149 565.32 149 566 C149.99 565.67 150.98 565.34 152 565 C151.01 564.67 150.02 564.34 149 564 Z M303 569 C303.33 569.66 303.66 570.32 304 571 C306.02463255 571.65213292 306.02463255 571.65213292 308 572 C307.67 571.01 307.34 570.02 307 569 C305.68 569 304.36 569 303 569 Z M168 581 C173.08172385 587.09806861 179.817438 589.7515196 187.625 590.75 C188.73875 590.8325 189.8525 590.915 191 591 C186.32130191 585.86348181 179.59630645 581.75198336 172.66015625 580.6171875 C170.60287151 580.58387699 170.60287151 580.58387699 168 581 Z M191 581 C191 581.66 191 582.32 191 583 C193.97 583.495 193.97 583.495 197 584 C196.67 583.01 196.34 582.02 196 581 C194.35 581 192.7 581 191 581 Z M154 585 C154 585.66 154 586.32 154 587 C156.31 587.33 158.62 587.66 161 588 C161 587.34 161 586.68 161 586 C158.69 585.67 156.38 585.34 154 585 Z M539 599 C538.67 600.65 538.34 602.3 538 604 C538.66 604 539.32 604 540 604 C540 602.35 540 600.7 540 599 C539.67 599 539.34 599 539 599 Z M149.125 606.5 C148.75375 606.995 148.3825 607.49 148 608 C151.41642759 608.25015873 151.41642759 608.25015873 155 608 C155.66 607.01 156.32 606.02 157 605 C152.74268432 604.59250325 152.74268432 604.59250325 149.125 606.5 Z M186 605 C186 605.66 186 606.32 186 607 C188.64 607.33 191.28 607.66 194 608 C194 607.34 194 606.68 194 606 C191.36 605.67 188.72 605.34 186 605 Z M204 610 C204 610.66 204 611.32 204 612 C205.29009643 612.50403768 206.58213789 613.00309926 207.875 613.5 C208.95394531 613.91765625 208.95394531 613.91765625 210.0546875 614.34375 C211.97367461 615.10655018 211.97367461 615.10655018 214 615 C214 613.68 214 612.36 214 611 C211.71294169 609.85647084 210.40735238 609.89665561 207.875 609.9375 C205.956875 609.9684375 205.956875 609.9684375 204 610 Z M249 616 C249.82457249 618.21809907 249.82457249 618.21809907 252.1875 618.8125 C255.85579552 619.05705303 257.86971154 617.81993515 261 616 C256.89962722 612.92472041 253.53236941 614.64028918 249 616 Z M502 618 C502.33 618.99 502.66 619.98 503 621 C504.98491642 620.73323796 504.98491642 620.73323796 507 620 C507.33 619.01 507.66 618.02 508 617 C504.2236068 616.7018576 504.2236068 616.7018576 502 618 Z M163 627 C163 627.66 163 628.32 163 629 C163.66 629 164.32 629 165 629 C165 628.34 165 627.68 165 627 C164.34 627 163.68 627 163 627 Z M154 632 C157.57940845 635.87656689 161.23187072 638.59254559 165.875 641.125 C166.88602783 641.68707153 166.88602783 641.68707153 167.91748047 642.26049805 C175.15987309 646.21404742 182.6210413 649.72472364 190.10498047 653.19384766 C195.02472131 655.49006502 199.59494452 657.81857104 204 661 C188.76492315 657.06957477 174.73372089 650.06086477 160.84716797 642.82446289 C159.8573291 642.31520264 158.86749023 641.80594238 157.84765625 641.28125 C156.96086182 640.81783203 156.07406738 640.35441406 155.16040039 639.87695312 C154.0910022 639.44286133 154.0910022 639.44286133 153 639 C152.01 639.495 152.01 639.495 151 640 C177.71140188 658.92256734 210.82438973 670.81734609 242.0625 680.0625 C243.17512207 680.39596436 244.28774414 680.72942871 245.43408203 681.07299805 C267.21116501 687.2111388 289.94403821 690.0538136 312.3125 693.125 C314.18810104 693.38313477 314.18810104 693.38313477 316.10159302 693.64648438 C323.39005554 694.64622281 330.68076509 695.62785614 337.97351074 696.5958252 C340.55660656 696.94078669 343.13841145 697.2933871 345.71972656 697.65136719 C362.61742893 699.95115511 379.40729995 700.2924498 396.4375 700.375 C397.48718964 700.38321777 398.53687927 700.39143555 399.61837769 700.39990234 C411.12635866 700.46671407 422.42350516 700.06212544 433.84765625 698.6015625 C434.82472031 698.47695648 435.80178436 698.35235046 436.80845642 698.22396851 C442.20418382 697.49870566 442.20418382 697.49870566 447 695 C437.5611665 691.54332705 427.8300271 691.83066556 417.9375 692.4375 C384.91720352 694.45860176 384.91720352 694.45860176 374 689 C372.58598615 688.90384706 371.16727108 688.87017935 369.75 688.875 C369.00234375 688.87242187 368.2546875 688.86984375 367.484375 688.8671875 C364.9693172 688.94779929 364.9693172 688.94779929 362.41015625 689.48046875 C343.71637431 692.32843324 324.28714238 689.519671 305.6875 687.25 C304.62864594 687.1236618 303.56979187 686.99732361 302.47885132 686.86715698 C286.67340353 684.95744865 271.71407481 682.77329167 257.3125 675.625 C248.21376876 671.29242755 238.95239454 667.59528906 229.53967285 664.019104 C214.9297564 658.46560704 200.81357819 652.42515015 186.82861328 645.41699219 C182.06995608 643.03314561 177.28922301 640.69668673 172.5 638.375 C171.66927979 637.96088867 170.83855957 637.54677734 169.98266602 637.12011719 C164.70124693 634.55740101 159.77608324 633.07435148 154 632 Z M184 633 C184.26676204 634.98491642 184.26676204 634.98491642 185 637 C185.99 637.33 186.98 637.66 188 638 C188.66 636.35 189.32 634.7 190 633 C188.02 633 186.04 633 184 633 Z M349.625 647.3125 C346.39961204 650.61468292 344 654.18580761 344 659 C347.49803111 658.35221646 349.97945576 656.82822415 353 655 C353.66 655 354.32 655 355 655 C355.99 656.98 356.98 658.96 358 661 C362.43888167 659.64367505 364.70741409 658.07570828 367 654 C367.52187856 649.46255585 367.4472889 645.34186671 366 641 C359.83697472 641 354.5287598 643.61016135 349.625 647.3125 Z M342 645 C341.67 645.66 341.34 646.32 341 647 C341.99 646.67 342.98 646.34 344 646 C343.34 645.67 342.68 645.34 342 645 Z M483 651 C481.67206394 653.06700655 481.67206394 653.06700655 481 655 C486.59068781 655.97065778 491.8998418 656.04397096 497.5625 655.9375 C506.23864 655.84484744 514.73897141 656.35798656 523.36352539 657.28881836 C535.03177626 658.58113445 535.03177626 658.58113445 546.5 656.6875 C547.3146875 656.44386719 548.129375 656.20023438 548.96875 655.94921875 C551.33713267 655.05651364 551.33713267 655.05651364 553 652 C548.0615366 651.29655383 543.12176365 650.60338557 538.18066406 649.91870117 C536.50874316 649.6856736 534.83717481 649.45009881 533.16601562 649.21166992 C524.17145993 647.93021666 515.21040957 646.8215997 506.13671875 646.29296875 C505.40284943 646.24878311 504.6689801 646.20459747 503.91287231 646.15907288 C496.56114579 645.79580216 488.93344402 646.17907674 483 651 Z M373 653 C372.95919217 654.99958364 372.95745644 657.00045254 373 659 C377.07239298 658.47315196 379.21598637 657.36950851 382.25 654.625 C382.93578125 654.01914062 383.6215625 653.41328125 384.328125 652.7890625 C386.23079743 651.00209012 386.23079743 651.00209012 387 648 C381.45557994 647.45908097 377.02189857 648.97810143 373 653 Z M608 648 C607.34 649.32 606.68 650.64 606 652 C606.99 652 607.98 652 609 652 C609.33 651.34 609.66 650.68 610 650 C609.34 649.34 608.68 648.68 608 648 Z M570 651 C569.34 652.32 568.68 653.64 568 655 C568.99 655 569.98 655 571 655 C570.67 653.68 570.34 652.36 570 651 Z M638.6875 651.375 C637.92324707 651.41810303 637.15899414 651.46120605 636.37158203 651.50561523 C632.19061975 651.77280585 628.12448813 652.22624865 624 653 C627.5237833 656.5237833 631.49372946 656.18330421 636.3125 656.25 C644.17215867 656.2169415 651.37751121 654.79352677 659 653 C659 652.67 659 652.34 659 652 C652.17546473 651.02291896 645.54976464 650.98381033 638.6875 651.375 Z M219 655 C219.33 655.99 219.66 656.98 220 658 C221.65 658.33 223.3 658.66 225 659 C225 657.68 225 656.36 225 655 C223.02 655 221.04 655 219 655 Z M396 659 C394.71745356 661.53770003 394.71745356 661.53770003 394 664 C399.16842829 662.55062448 399.16842829 662.55062448 403 659 C403 658.34 403 657.68 403 657 C399.80780296 657 398.60391451 657.23605791 396 659 Z M305 659 C304.34 660.32 303.68 661.64 303 663 C304.32 662.34 305.64 661.68 307 661 C307 660.34 307 659.68 307 659 C306.34 659 305.68 659 305 659 Z M377 663 C377 664.32 377 665.64 377 667 C379.93638223 666.43968727 379.93638223 666.43968727 383 665 C384.91839859 661.9994093 384.91839859 661.9994093 386 659 C381.9209831 659 380.14072811 660.48741752 377 663 Z M401 668 C401.33 668.99 401.66 669.98 402 671 C405.57104439 669.12050295 407.54744301 667.82946843 409 664 C405.71841516 664 403.62118892 666.17656423 401 668 Z M415.875 666 C415.25625 666.66 414.6375 667.32 414 668 C417.72614153 666.88145414 417.72614153 666.88145414 420 664 C417.75637427 663.7715451 417.75637427 663.7715451 415.875 666 Z M247 665 C249.59431921 667.0684927 251.95198405 668.54967874 255.0546875 669.71875 C256.21327271 670.15562134 256.21327271 670.15562134 257.39526367 670.60131836 C271.80735959 675.82440835 284.67951754 678.53721172 300 678 C291.32416529 672.2161102 279.80425602 670.36386006 269.75 668.25 C268.26077026 667.93421997 268.26077026 667.93421997 266.74145508 667.61206055 C260.17863033 666.28273621 253.67865009 665.4679309 247 665 Z M423 669 C421.61131484 671.10039331 421.61131484 671.10039331 421 673 C421.99 673.495 421.99 673.495 423 674 C424.29608947 673.06862408 425.58671632 672.1296434 426.875 671.1875 C427.59429688 670.66542969 428.31359375 670.14335938 429.0546875 669.60546875 C431.23028655 667.96727223 431.23028655 667.96727223 433 665 C428.21760558 665 426.70642288 666.09932122 423 669 Z M460 695 C460 695.66 460 696.32 460 697 C460.99 697.33 461.98 697.66 463 698 C463.99 697.34 464.98 696.68 466 696 C466 695.34 466 694.68 466 694 C462.2236068 693.7018576 462.2236068 693.7018576 460 695 Z " fill="#FFFFFF" transform="translate(120,48)"/>
<path d="M0 0 C2.53214862 1.26607431 2.68957969 2.18014549 3.76953125 4.75390625 C4.10146484 5.52669922 4.43339844 6.29949219 4.77539062 7.09570312 C5.45526736 8.71281108 6.1349614 10.32999586 6.81445312 11.94726562 C9.11140632 17.29506644 11.7686148 22.15833979 15 27 C14.68192383 26.10692139 14.68192383 26.10692139 14.35742188 25.19580078 C13.40170752 22.50667264 12.45079852 19.81586995 11.5 17.125 C10.99919922 15.71927734 10.99919922 15.71927734 10.48828125 14.28515625 C10.01455078 12.94130859 10.01455078 12.94130859 9.53125 11.5703125 C9.09135742 10.32918701 9.09135742 10.32918701 8.64257812 9.06298828 C8 7 8 7 8 5 C12.41805618 6.42960867 15.4667189 8.81812108 18.8125 11.9375 C19.33585937 12.42259033 19.85921875 12.90768066 20.3984375 13.4074707 C27.55379095 20.22329647 32.92937253 28.01069767 37 37 C35.35 37.66 33.7 38.32 32 39 C32.66 42.3 33.32 45.6 34 49 C30 47 30 47 28 45 C23.99653977 44.55709077 23.99653977 44.55709077 21.75 47 C21.1725 47.66 20.595 48.32 20 49 C13.95734841 46.7515715 11.87065438 43.47525082 9 38 C7.41868103 34.32512779 6.06867778 30.58848312 4.75 26.8125 C4.399375 25.84119141 4.04875 24.86988281 3.6875 23.86914062 C1.42315127 17.51590063 -0.14435484 11.9814514 -0.0625 5.1875 C-0.05347656 4.21167969 -0.04445312 3.23585938 -0.03515625 2.23046875 C-0.02355469 1.49441406 -0.01195312 0.75835937 0 0 Z " fill="#FFFFFF" transform="translate(181,366)"/>
<path d="M0 0 C3.859375 0.796875 3.859375 0.796875 5.125 2.625 C6.26024369 5.70637574 7.14658467 8.83017165 8 12 C8.804375 12.144375 9.60875 12.28875 10.4375 12.4375 C13 13 13 13 14 14 C13.99245847 17.37106359 13.92129882 20.72960745 13.78515625 24.09765625 C13.55884218 28.24649028 13.55884218 28.24649028 15.51171875 31.70703125 C16.24841797 32.34705078 16.24841797 32.34705078 17 33 C17.59711043 39.30765745 15.93445985 44.17711374 12 49 C9.6875 48.375 9.6875 48.375 7 47 C5.4375 44.1875 5.4375 44.1875 4 41 C3.34 40.2575 2.68 39.515 2 38.75 C-4.07436275 30.39775122 -3.77792002 19.89354694 -3 10 C-2.27484253 6.53258035 -1.32592868 3.28325196 0 0 Z " fill="#FFFFFF" transform="translate(244,362)"/>
<path d="M0 0 C2.125 0.375 2.125 0.375 4 1 C5.33984175 7.33379737 4.52179293 11.88147145 2.69140625 18.0703125 C1.96566507 21.145487 1.88323745 23.85208175 2 27 C4.00051832 21.81454678 4.00051832 21.81454678 5.7265625 16.53515625 C5.96117187 15.73980469 6.19578125 14.94445312 6.4375 14.125 C6.64246094 13.38507813 6.84742188 12.64515625 7.05859375 11.8828125 C8.26980624 9.46038752 9.58938599 9.09570608 12 8 C8.78864673 31.69589458 8.78864673 31.69589458 3.125 39.625 C0.19637393 41.51999334 -1.58472045 41.58132418 -5 41 C-8.77114236 37.48893643 -8.89258835 33.47691019 -9.25 28.5625 C-9.10480992 18.99810365 -6.99816476 6.99816476 0 0 Z " fill="#FFFFFF" transform="translate(263,258)"/>
<path d="M0 0 C2.57199094 1.19079251 5.13118581 2.40135091 7.6875 3.625 C8.40873047 3.95628906 9.12996094 4.28757812 9.87304688 4.62890625 C14.8542609 7.03990482 17.86859243 9.40036437 21 14 C21.5587126 18.54951692 21.09633097 21.92380089 19 26 C17 28 17 28 14.375 28.5625 C5.62746988 27.10457831 0.03347264 17.58576236 -4.99609375 10.890625 C-7 8 -7 8 -8 5 C-2.68972746 6.46032495 1.46330032 8.98320986 6 12 C5.73445312 11.46890625 5.46890625 10.9378125 5.1953125 10.390625 C3.46354167 6.92708333 1.73177083 3.46354167 0 0 Z " fill="#FFFFFF" transform="translate(133,340)"/>
<path d="M0 0 C15.12057892 2.15548678 26.59980517 10.12606968 36 22 C32.25572225 23.87213887 27.80069744 21.53185286 23.9375 20.4375 C22.56174805 20.07688477 22.56174805 20.07688477 21.15820312 19.70898438 C13.51933676 17.5597073 5.7431306 14.41402245 1.4375 7.375 C0 4 0 4 0 0 Z " fill="#FFFFFF" transform="translate(149,323)"/>
<path d="M0 0 C0.67804688 0.70769531 1.35609375 1.41539062 2.0546875 2.14453125 C5.19190409 5.28064241 8.62072733 7.97629957 12.125 10.6875 C12.74503906 11.17283203 13.36507812 11.65816406 14.00390625 12.15820312 C16.62023941 14.19781768 19.23867106 16.15911404 22 18 C21.67 18.99 21.34 19.98 21 21 C20.01 21 19.02 21 18 21 C18.433125 21.48210937 18.86625 21.96421875 19.3125 22.4609375 C19.869375 23.09257812 20.42625 23.72421875 21 24.375 C21.556875 25.00148438 22.11375 25.62796875 22.6875 26.2734375 C24 28 24 28 24 30 C19.00566576 30.39041256 16.49142009 29.48782522 12.375 26.6875 C11.45460937 26.07261719 10.53421875 25.45773437 9.5859375 24.82421875 C8.73257813 24.22222656 7.87921875 23.62023437 7 23 C6.23042969 22.52304687 5.46085938 22.04609375 4.66796875 21.5546875 C3 20 3 20 2.71484375 17.87109375 C2.78832031 17.06800781 2.86179688 16.26492188 2.9375 15.4375 C3.19369269 9.82605359 1.87584045 5.24788699 0 0 Z " fill="#FFFFFF" transform="translate(163,291)"/>
<path d="M0 0 C5.41053679 2.42541304 8.70868592 5.06302888 12 10 C12.8125 13.875 12.8125 13.875 13 17 C6.77533728 17.81191253 3.68220082 15.82600023 -1.48828125 12.46875 C-4.94199066 10.44916254 -8.08616673 9.72478394 -12 9 C-11.52 3.6 -11.52 3.6 -9.375 1.125 C-5.98508917 -0.48074723 -3.72225279 -0.44162321 0 0 Z " fill="#FFFFFF" transform="translate(124,223)"/>
<path d="M0 0 C4.46637642 0.50562752 6.20634897 2.19825462 9.3125 5.375 C11.16743963 8.7476175 11.72701429 11.54074284 11.3125 15.375 C9.3125 17.375 9.3125 17.375 7.10546875 17.640625 C-1.53662813 17.58879833 -1.53662813 17.58879833 -5.6875 15.375 C-7.01713547 9.45207836 -6.39906055 6.58953952 -3.6875 1.375 C-2.6875 0.375 -2.6875 0.375 0 0 Z " fill="#FFFFFF" transform="translate(233.6875,179.625)"/>
<path d="M0 0 C0.89783203 -0.00386719 1.79566406 -0.00773438 2.72070312 -0.01171875 C3.58759766 -0.01042969 4.45449219 -0.00914062 5.34765625 -0.0078125 C6.13277588 -0.00668457 6.91789551 -0.00555664 7.72680664 -0.00439453 C9.9167394 0.12378486 11.83343371 0.52109669 13.9375 1.125 C13.9375 2.115 13.9375 3.105 13.9375 4.125 C7.86539612 7.03454977 2.31156942 9.2808935 -4.30078125 7.015625 C-8.95616363 5.91341609 -11.78003015 6.68163607 -16.25 8.0625 C-24.61766946 10.55812072 -24.61766946 10.55812072 -28.0625 9.125 C-20.62557881 0.52605987 -10.78762602 -0.04666601 0 0 Z " fill="#FFFFFF" transform="translate(182.0625,196.875)"/>
<path d="M0 0 C11.04578443 2.67919027 20.45739055 7.38106426 27 17 C27 17.66 27 18.32 27 19 C20.64056552 19.45424532 16.25095364 18.75669428 11 15 C6.31615072 10.60233296 2.95376818 5.67123491 0 0 Z " fill="#FFFFFF" transform="translate(136,331)"/>
<path d="M0 0 C5.63477939 1.36600713 8.7478264 5.48094643 12 10 C14.70021252 14.80848656 16.43375913 19.4791515 17 25 C10.05357391 22.6183682 6.44230424 18.90019606 3.0703125 12.52734375 C1.35568569 8.47857169 0.60673562 4.33770686 0 0 Z " fill="#FFFFFF" transform="translate(355,564)"/>
<path d="M0 0 C12.49502455 0.27544142 23.05803826 4.52426133 33 12 C32.67 12.66 32.34 13.32 32 14 C24.87076529 12.83339796 18.62254496 10.3302663 12.02954102 7.47631836 C8.36329424 5.90327628 4.98284331 4.57233772 1 4 C0.67 2.68 0.34 1.36 0 0 Z " fill="#FFFFFF" transform="translate(157,319)"/>
<path d="M0 0 C4.03906991 0.05788476 6.65369384 0.44397254 9.75 3.25 C10.6875 5.8125 10.6875 5.8125 10.75 8.25 C8.26981247 10.73018753 7.36484049 10.57361558 3.9375 10.625 C0.14081278 10.57005518 -1.07038039 10.36495655 -4.375 8.25 C-4.99375 7.59 -5.6125 6.93 -6.25 6.25 C-5.1465576 0.10224949 -5.1465576 0.10224949 0 0 Z " fill="#FFFFFF" transform="translate(134.25,212.75)"/>
<path d="M0 0 C2.375 0.3125 2.375 0.3125 5 1 C8.19805884 5.79708827 8.31690548 10.29570132 8 16 C7.34 16.99 6.68 17.98 6 19 C5.18357746 17.73168307 4.37200895 16.46024069 3.5625 15.1875 C3.11003906 14.47980469 2.65757812 13.77210938 2.19140625 13.04296875 C-0.38574397 8.62378985 -0.08132343 4.96072932 0 0 Z " fill="#FFFFFF" transform="translate(297,464)"/>
<path d="M0 0 C0 1.32 0 2.64 0 4 C-3.85756507 6.15305957 -6.55129785 7.39253254 -11 7 C-11.33 9.31 -11.66 11.62 -12 14 C-12.66 14 -13.32 14 -14 14 C-14.875 11.4375 -14.875 11.4375 -15 8 C-10.90124408 1.43130973 -7.66154143 -0.1418804 0 0 Z " fill="#FFFFFF" transform="translate(265,183)"/>
<path d="M0 0 C2.375 -0.1875 2.375 -0.1875 5 0 C7.4294516 3.6441774 7.16179575 5.71241272 7 10 C6.01 10.495 6.01 10.495 5 11 C-0.74504249 5.69688385 -0.74504249 5.69688385 -1 2 C-0.67 1.34 -0.34 0.68 0 0 Z " fill="#FFFFFF" transform="translate(175,386)"/>
<path d="M0 0 C2.35232273 2.35232273 2.29557039 2.86280332 2.3125 6.0625 C2.22284494 11.08318309 0.84045463 15.36599816 -1 20 C-3 18 -3 18 -3.046875 15.390625 C-2.05920206 4.94208494 -2.05920206 4.94208494 0 0 Z " fill="#FFFFFF" transform="translate(277,362)"/>
<path d="M0 0 C3.08914085 0.33097938 4.0026931 1.00284699 6.1875 3.3125 C7.79407709 5.69466602 8.58574686 7.20379133 9 10 C8.01 10.33 7.02 10.66 6 11 C1.9957657 7.50912907 0.37328935 5.35048061 0 0 Z " fill="#FFFFFF" transform="translate(334,534)"/>
<path d="M0 0 C1.66611905 -0.042721 3.33382885 -0.04063832 5 0 C6 1 6 1 6.09765625 2.84765625 C6.06510417 4.8984375 6.03255208 6.94921875 6 9 C1.25 8.25 1.25 8.25 -1 6 C-0.625 2.875 -0.625 2.875 0 0 Z " fill="#FFFFFF" transform="translate(183,293)"/>
<path d="M0 0 C3 2 3 2 3.8125 5.5 C3.874375 6.655 3.93625 7.81 4 9 C3.34 9.66 2.68 10.32 2 11 C0.4375 10 0.4375 10 -1 8 C-0.96726452 5.23385218 -0.49404328 2.73969453 0 0 Z " fill="#FFFFFF" transform="translate(160,377)"/>
<path d="M0 0 C0.66 0 1.32 0 2 0 C2 4.29 2 8.58 2 13 C1.01 13 0.02 13 -1 13 C-1.02708567 11.39592672 -1.04643483 9.7917215 -1.0625 8.1875 C-1.07410156 7.29417969 -1.08570313 6.40085937 -1.09765625 5.48046875 C-1 3 -1 3 0 0 Z " fill="#FFFFFF" transform="translate(270,360)"/>
<path d="M0 0 C3.26460973 1.80412643 4.88929795 2.83394693 7 6 C7 6.99 7 7.98 7 9 C4.625 8.8125 4.625 8.8125 2 8 C0.40339294 5.11090151 0 3.30941204 0 0 Z " fill="#FFFFFF" transform="translate(166,357)"/>
<path d="M0 0 C0.66 0.33 1.32 0.66 2 1 C2 3.64 2 6.28 2 9 C1.01 9 0.02 9 -1 9 C-1.33 8.67 -1.66 8.34 -2 8 C-1.28 1.28 -1.28 1.28 0 0 Z " fill="#FFFFFF" transform="translate(313,504)"/>
<path d="M0 0 C0.99 0.495 0.99 0.495 2 1 C3.1577506 4.47325181 3.06866652 7.36067448 3 11 C2.01 11 1.02 11 0 11 C0 7.37 0 3.74 0 0 Z " fill="#FFFFFF" transform="translate(226,360)"/>
<path d="M0 0 C2.33333823 2.12121657 3.9148886 4.01594365 5 7 C4.625 9.25 4.625 9.25 4 11 C0.85041169 7.57653445 0.43820891 4.55737263 0 0 Z " fill="#FFFFFF" transform="translate(250,321)"/>
<path d="M0 0 C0 1.32 0 2.64 0 4 C-2.375 4.625 -2.375 4.625 -5 5 C-5.66 4.34 -6.32 3.68 -7 3 C-3.375 0 -3.375 0 0 0 Z " fill="#FFFFFF" transform="translate(120,214)"/>
<path d="M0 0 C1.9375 0.3125 1.9375 0.3125 4 1 C4.33 1.99 4.66 2.98 5 4 C4.67 4.66 4.34 5.32 4 6 C3.01 6 2.02 6 1 6 C0.67 4.02 0.34 2.04 0 0 Z " fill="#FFFFFF" transform="translate(208,453)"/>
<path d="M0 0 C0.66 0.33 1.32 0.66 2 1 C2 3.31 2 5.62 2 8 C1.01 7.67 0.02 7.34 -1 7 C-1.04254356 5.00045254 -1.04080783 2.99958364 -1 1 C-0.67 0.67 -0.34 0.34 0 0 Z " fill="#FFFFFF" transform="translate(288,420)"/>
<path d="M0 0 C1.32 0 2.64 0 4 0 C3.67 1.32 3.34 2.64 3 4 C1.68 3.67 0.36 3.34 -1 3 C-0.67 2.01 -0.34 1.02 0 0 Z " fill="#FFFFFF" transform="translate(158,359)"/>
<path d="M0 0 C0.99 0 1.98 0 3 0 C2.67 1.65 2.34 3.3 2 5 C1.01 5 0.02 5 -1 5 C-0.67 3.35 -0.34 1.7 0 0 Z " fill="#FFFFFF" transform="translate(149,207)"/>
<path d="M0 0 C1.9375 0.8125 1.9375 0.8125 4 2 C4.33 2.99 4.66 3.98 5 5 C3.68 4.67 2.36 4.34 1 4 C0.67 2.68 0.34 1.36 0 0 Z " fill="#FFFFFF" transform="translate(237,456)"/>
<path d="M0 0 C0.99 0.495 0.99 0.495 2 1 C2 3.31 2 5.62 2 8 C1.34 7.67 0.68 7.34 0 7 C0 4.69 0 2.38 0 0 Z " fill="#FFFFFF" transform="translate(348,553)"/>
<path d="M0 0 C0.66 0.33 1.32 0.66 2 1 C1.67 2.98 1.34 4.96 1 7 C0.34 7 -0.32 7 -1 7 C-0.67 4.69 -0.34 2.38 0 0 Z " fill="#FFFFFF" transform="translate(283,402)"/>
<path d="M0 0 C2.35953094 2.35953094 2.49141413 3.77895617 3 7 C2.01 6.67 1.02 6.34 0 6 C-0.38218767 4.34385343 -0.71395102 2.67542976 -1 1 C-0.67 0.67 -0.34 0.34 0 0 Z " fill="#FFFFFF" transform="translate(246,309)"/>
<path d="M0 0 C1.32 0.33 2.64 0.66 4 1 C4 1.66 4 2.32 4 3 C2.68 2.67 1.36 2.34 0 2 C0 1.34 0 0.68 0 0 Z " fill="#FFFFFF" transform="translate(471,651)"/>
<path d="M0 0 C0.99 0 1.98 0 3 0 C2.67 0.99 2.34 1.98 2 3 C1.34 2.67 0.68 2.34 0 2 C0 1.34 0 0.68 0 0 Z " fill="#FFFFFF" transform="translate(155,281)"/>
</svg>
