<?xml version="1.0" encoding="UTF-8"?>
<svg version="1.1" xmlns="http://www.w3.org/2000/svg" width="800" height="800">
<path d="M0 0 C0.66 0 1.32 0 2 0 C2.61705811 1.0837793 2.61705811 1.0837793 3.24658203 2.18945312 C11.02847849 15.85038142 18.84142316 29.49036317 26.7800293 43.06103516 C32.93536851 53.58695224 39.02257111 64.15184167 45.10888672 74.71777344 C48.23680148 80.14659942 51.36858448 85.57319281 54.5 91 C55.75001879 93.16665583 57.00001878 95.3333225 58.25 97.5 C58.86875 98.5725 59.4875 99.645 60.125 100.75 C155.75 266.5 155.75 266.5 157.62524414 269.75048828 C158.87435518 271.91557071 160.12354129 274.08060982 161.37280273 276.24560547 C164.51202309 281.68615706 167.64990563 287.12747216 170.78515625 292.5703125 C176.80747329 303.02206199 182.84669337 313.46299548 188.9375 323.875 C194.35921178 333.14499777 199.70204915 342.45831752 205.01922607 351.78845215 C210.22045129 360.9128284 215.48027878 370.00132774 220.78344727 379.06689453 C226.93766742 389.59084625 233.02369996 400.15380137 239.10888672 410.71777344 C242.23680148 416.14659942 245.36858448 421.57319281 248.5 427 C249.75001879 429.16665583 251.00001878 431.3333225 252.25 433.5 C253.178125 435.10875 253.178125 435.10875 254.125 436.75 C364.75 628.50000001 364.75 628.50000001 366.6262207 631.75219727 C367.8720577 633.91159395 369.11798818 636.07093669 370.36401367 638.23022461 C373.55348953 643.75767597 376.74116885 649.28615121 379.92578125 654.81640625 C381.22131657 657.06512583 382.51688896 659.31382405 383.8125 661.5625 C384.43326416 662.64080078 385.05402832 663.71910156 385.69360352 664.83007812 C388.4911637 669.68241733 391.30120151 674.52569306 394.1640625 679.33984375 C394.63739014 680.13640381 395.11071777 680.93296387 395.59838867 681.75366211 C396.4642552 683.2061394 397.33395536 684.65634118 398.20825195 686.10375977 C401 690.78197057 401 690.78197057 401 693 C137 693 -127 693 -399 693 C-397.54877547 689.37193866 -396.12455815 686.25771216 -394.234375 682.88671875 C-393.68144775 681.89873291 -393.12852051 680.91074707 -392.55883789 679.89282227 C-391.96192139 678.83506592 -391.36500488 677.77730957 -390.75 676.6875 C-389.81498657 675.02448853 -389.81498657 675.02448853 -388.86108398 673.32788086 C-383.52126695 663.86059123 -378.05876975 654.46700035 -372.5625 645.08984375 C-368.8678669 638.78429581 -365.21147319 632.45705564 -361.5625 626.125 C-360.93996338 625.04484619 -360.31742676 623.96469238 -359.67602539 622.85180664 C-358.41423174 620.66203666 -357.15259466 618.47217645 -355.89111328 616.28222656 C-352.76319852 610.85340058 -349.63141552 605.42680719 -346.5 600 C-345.24998121 597.83334417 -343.99998122 595.6666775 -342.75 593.5 C-330.25 571.83333333 -317.75 550.16666667 -305.25 528.5 C-304.63116943 527.42733887 -304.01233887 526.35467773 -303.37475586 525.24951172 C-302.12564482 523.08442929 -300.87645871 520.91939018 -299.62719727 518.75439453 C-296.48797691 513.31384294 -293.35009437 507.87252784 -290.21484375 502.4296875 C-284.19252671 491.97793801 -278.15330663 481.53700452 -272.0625 471.125 C-266.98724877 462.44737759 -261.97741233 453.73394432 -257 445 C-251.4599827 435.27884383 -245.86625191 425.59105342 -240.21655273 415.93310547 C-234.06233258 405.40915375 -227.97630004 394.84619863 -221.89111328 384.28222656 C-218.76319852 378.85340058 -215.63141552 373.42680719 -212.5 368 C-211.24998121 365.83334417 -209.99998122 363.6666775 -208.75 361.5 C-152.5 264 -152.5 264 -96.25 166.5 C-95.63116943 165.42733887 -95.01233887 164.35467773 -94.37475586 163.24951172 C-93.12564482 161.08442929 -91.87645871 158.91939018 -90.62719727 156.75439453 C-87.48797691 151.31384294 -84.35009437 145.87252784 -81.21484375 140.4296875 C-75.19252671 129.97793801 -69.15330663 119.53700452 -63.0625 109.125 C-57.98724877 100.44737759 -52.97741233 91.73394432 -48 83 C-42.46290775 73.28397646 -36.87257166 63.60103793 -31.2253418 53.94848633 C-26.89454017 46.54333882 -22.59690139 39.11958059 -18.3125 31.6875 C-17.68891602 30.60791016 -17.06533203 29.52832031 -16.42285156 28.41601562 C-13.48888268 23.33376905 -10.56779731 18.24518237 -7.6796875 13.13671875 C-7.17139404 12.24315674 -6.66310059 11.34959473 -6.1394043 10.42895508 C-5.19456087 8.76693943 -4.25559673 7.10156306 -3.32348633 5.43237305 C-2.27172535 3.58845126 -1.14399354 1.78816316 0 0 Z " fill="#FFFFFF" transform="translate(399,53)"/>
</svg>
