<?xml version="1.0" encoding="UTF-8"?>
<svg version="1.1" xmlns="http://www.w3.org/2000/svg" width="800" height="800">
<path d="M0 0 C54.07387313 -1.08777035 106.80877917 10.03733354 155.33935547 34.06201172 C156.12197754 34.44711914 156.90459961 34.83222656 157.7109375 35.22900391 C197.20990009 54.86152183 235.57655781 84.9388428 262.33935547 120.06201172 C263.38496076 121.35966111 264.43339573 122.65503303 265.48388672 123.94873047 C289.70987026 154.03759224 307.40769952 188.40469366 319.33935547 225.06201172 C319.59668457 225.8294873 319.85401367 226.59696289 320.11914062 227.38769531 C335.53317974 273.59076506 339.23891258 325.97875632 331.33935547 374.06201172 C331.0819458 375.66085205 331.0819458 375.66085205 330.81933594 377.29199219 C320.82753975 437.59100884 294.29676407 494.56736448 253.33935547 540.06201172 C252.84193848 540.6158252 252.34452148 541.16963867 251.83203125 541.74023438 C242.54402875 552.03669973 233.00926629 562.17917956 222.33935547 571.06201172 C221.81841309 571.50206543 221.2974707 571.94211914 220.76074219 572.39550781 C204.09860712 586.43621947 186.43883988 598.58486672 167.33935547 609.06201172 C166.53481934 609.51141113 165.7302832 609.96081055 164.90136719 610.42382812 C127.37691578 631.31686161 85.94791506 643.40930385 43.33935547 648.06201172 C42.57252441 648.15627441 41.80569336 648.25053711 41.015625 648.34765625 C31.1633926 649.42987239 21.23840281 649.3058844 11.33935547 649.31201172 C9.87021698 649.31302383 9.87021698 649.31302383 8.37139893 649.3140564 C-7.49764101 649.29672893 -22.96975568 648.62629123 -38.66064453 646.06201172 C-39.72798828 645.89040527 -40.79533203 645.71879883 -41.89501953 645.54199219 C-118.29930498 632.87961135 -194.07630264 592.24504491 -241.66064453 530.06201172 C-242.88847656 528.55960938 -242.88847656 528.55960938 -244.14111328 527.02685547 C-287.55964615 473.7769616 -312.83710623 404.6878364 -314.66064453 336.06201172 C-314.68255859 335.26214844 -314.70447266 334.46228516 -314.72705078 333.63818359 C-315.89642762 282.53641556 -305.21096925 232.34670299 -283.66064453 186.06201172 C-283.06147217 184.77085449 -283.06147217 184.77085449 -282.45019531 183.45361328 C-273.74337932 164.89857158 -263.02120113 147.40859323 -250.66064453 131.06201172 C-250.2254248 130.48402832 -249.79020508 129.90604492 -249.34179688 129.31054688 C-243.63130444 121.77121735 -237.61479548 114.63453443 -231.14892578 107.73388672 C-229.07577893 105.50777612 -227.07303988 103.24953554 -225.09814453 100.93701172 C-218.53274562 93.38209096 -211.28307035 86.53236615 -203.66064453 80.06201172 C-202.75185547 79.26408203 -201.84306641 78.46615234 -200.90673828 77.64404297 C-146.00382956 29.76595657 -72.74438455 1.69545547 0 0 Z " fill="#E4E5E6" transform="translate(390.66064453125,-0.06201171875)"/>
<path d="M0 0 C5.30402704 4.89560096 8.46980864 10.27695547 11.09375 16.921875 C11.44240616 17.76664398 11.79106232 18.61141296 12.15028381 19.48178101 C13.28158339 22.23208519 14.39069453 24.99076066 15.5 27.75 C16.29390441 29.69059147 17.089419 31.63052491 17.88647461 33.56982422 C19.50178809 37.50487085 21.10932958 41.44294653 22.71044922 45.38378906 C25.64459807 52.59633672 28.64914452 59.77893497 31.65707397 66.9609375 C33.19032704 70.625572 34.71642247 74.29318033 36.2421875 77.9609375 C36.54773056 78.69536072 36.85327362 79.42978394 37.16807556 80.1864624 C41.20323537 89.88912245 45.22420285 99.59767319 49.24636841 109.3057251 C55.146157 123.54470775 61.06859436 137.77416145 67 152 C73.52787791 167.65644321 80.04009374 183.31922299 86.53173828 198.99072266 C91.9125801 211.97939935 97.31260776 224.95998824 102.72280884 237.9364624 C106.07402306 245.97486031 109.42332931 254.01405352 112.7723999 262.05334473 C113.58810367 264.01130954 114.40389896 265.96923624 115.2197876 267.92712402 C117.55780504 273.53794078 119.89365706 279.14964954 122.22631836 284.76269531 C122.9339183 286.46449783 123.64221671 288.16601016 124.35131836 289.8671875 C126.58893576 295.23616612 128.80611816 300.6130014 131 306 C131.32970795 306.8064093 131.65941589 307.6128186 131.99911499 308.44366455 C132.98856845 310.87522466 133.964925 313.31164631 134.9375 315.75 C135.236064 316.48133148 135.53462799 317.21266296 135.84223938 317.96615601 C138.81443976 325.50437469 139.70506074 332.7506916 136.4375 340.375 C132.70544831 346.69583402 126.97982281 350.87056253 120 353 C112.17970449 354.18889628 106.4896972 352.34703902 100 348 C95.22678084 344.42945013 90.66711435 340.5970915 86.10546875 336.76269531 C82.72387982 333.93163408 79.29974056 331.15357094 75.875 328.375 C75.21250244 327.83568848 74.55000488 327.29637695 73.86743164 326.74072266 C69.553657 323.23568146 65.1970401 319.7909053 60.8125 316.375 C55.726478 312.41125249 50.78366515 308.31010256 45.88500977 304.11791992 C41.52046797 300.39953824 37.03761304 296.85494744 32.51171875 293.3359375 C27.77263747 289.63841255 23.12832474 285.83494218 18.5 282 C13.38530185 277.76349667 8.24109823 273.5791852 3 269.5 C-3.07797735 264.76866679 -9.02722281 259.89119525 -14.96264648 254.98266602 C-19.39209886 251.32030577 -23.84833343 247.69747855 -28.34765625 244.12109375 C-31.91528639 241.26804049 -35.45697009 238.38351017 -39 235.5 C-44.18620636 231.27974561 -49.38734208 227.08021055 -54.6171875 222.9140625 C-58.32308644 219.93719286 -61.98730375 216.9097664 -65.65234375 213.8828125 C-68.05145848 211.90225342 -68.05145848 211.90225342 -71 210 C-71.13037722 210.73178152 -71.26075443 211.46356304 -71.39508247 212.21751976 C-71.95751237 214.80456678 -72.69967747 217.06558649 -73.67868042 219.51968384 C-74.02596695 220.39626648 -74.37325348 221.27284912 -74.73106384 222.17599487 C-75.11226883 223.12548004 -75.49347382 224.07496521 -75.88623047 225.05322266 C-76.28811081 226.06396851 -76.68999115 227.07471436 -77.10404968 228.11608887 C-78.4376505 231.467068 -79.77735952 234.81556884 -81.1171875 238.1640625 C-82.05382064 240.51348403 -82.99010443 242.86304487 -83.92605591 245.21273804 C-85.89571926 250.1550651 -87.86802357 255.09632514 -89.84277344 260.03662109 C-92.3418458 266.2886574 -94.83620356 272.54256057 -97.32885551 278.79715919 C-99.73598194 284.8367192 -102.14518384 290.87545058 -104.5546875 296.9140625 C-104.99999691 298.03041706 -105.44530632 299.14677162 -105.90410995 300.29695511 C-112.52787184 316.8958247 -119.24345048 333.45472325 -126 350 C-141.84 350 -157.68 350 -174 350 C-173.11496224 345.57481121 -171.82447513 341.79179299 -170.10546875 337.66796875 C-169.80647675 336.94073105 -169.50748474 336.21349335 -169.19943237 335.46421814 C-168.19992897 333.0367732 -167.19379004 330.61213862 -166.1875 328.1875 C-165.47227017 326.45504113 -164.75735231 324.72245343 -164.04272461 322.98974609 C-157.14264261 306.27792283 -150.17909068 289.59220789 -143.21620178 272.90647888 C-138.29411315 261.11119971 -133.39059088 249.30836969 -128.5 237.5 C-121.92964455 221.63775959 -115.33156846 205.78719359 -108.72427368 189.94030762 C-102.50959024 175.03413358 -96.31256465 160.120764 -90.13134766 145.20068359 C-84.96235169 132.72437738 -79.77723648 120.25491246 -74.57861328 107.79092407 C-70.66424098 98.40531507 -66.75934284 89.01586847 -62.86962891 79.62001038 C-61.10576003 75.35940938 -59.33991077 71.09965717 -57.56884766 66.84204102 C-54.1478785 58.61502667 -50.74240456 50.38272369 -47.38954163 42.12767029 C-45.78384015 38.18079801 -44.16562623 34.23912175 -42.54556274 30.29812622 C-41.77403363 28.41266009 -41.00808558 26.52489913 -40.24813843 24.63473511 C-30.97400262 1.58264985 -30.97400262 1.58264985 -21 -3 C-13.63303347 -5.79436662 -6.4438118 -3.98425403 0 0 Z " fill="#010101" transform="translate(419,133)"/>
<path d="M0 0 C2.05770651 3.08655977 3.32491477 5.99839209 4.73046875 9.4296875 C4.9970076 10.07803558 5.26354645 10.72638367 5.53816223 11.39437866 C6.42456991 13.55325106 7.30609291 15.71408166 8.1875 17.875 C8.81945657 19.41772718 9.45162219 20.96036873 10.08398438 22.50292969 C15.02167433 34.55931238 19.91807874 46.63255495 24.8046875 58.7097168 C31.70139737 75.7523774 38.64544079 92.775736 45.58789062 109.79980469 C46.27936943 111.49593651 46.27936943 111.49593651 46.9848175 113.22633362 C47.84812284 115.34391454 48.71169876 117.46138519 49.5756073 119.57872009 C51.75457128 124.9237809 53.9150845 130.27564763 56.05476379 135.6365509 C57.53422864 139.33577427 59.03244807 143.02732839 60.53125 146.71875 C61.00794128 147.89383118 61.00794128 147.89383118 61.4942627 149.09265137 C62.49594523 151.56186093 63.49793191 154.03094688 64.5 156.5 C65.82319767 159.76030273 67.14616145 163.02070011 68.46875 166.28125 C68.78414734 167.0586705 69.09954468 167.836091 69.42449951 168.6370697 C71.03903953 172.61952127 72.64491086 176.60511042 74.234375 180.59765625 C75.43412416 183.60806581 76.6643061 186.6031176 77.921875 189.58984375 C78.22480469 190.31107422 78.52773438 191.03230469 78.83984375 191.77539062 C79.45874624 193.24561607 80.08127973 194.71431715 80.70703125 196.18164062 C83 201.66590571 83 201.66590571 83 205 C78.83058987 203.24718828 75.5932259 200.39682092 72.125 197.5625 C70.77517315 196.47081786 69.42490277 195.37968393 68.07421875 194.2890625 C67.05207275 193.46196777 67.05207275 193.46196777 66.00927734 192.61816406 C63.00536689 190.19897591 59.97382485 187.81579646 56.9375 185.4375 C56.07825928 184.76376343 56.07825928 184.76376343 55.20166016 184.07641602 C54.04590103 183.17036195 52.88997712 182.26451805 51.73388672 181.35888672 C48.23553554 178.6171488 44.7420205 175.86925044 41.24755859 173.12255859 C38.34497577 170.84143761 35.44131727 168.56171737 32.53515625 166.28515625 C27.18304902 162.08999658 21.84357675 157.8817142 16.54492188 153.61914062 C9.91060192 148.28238482 3.19171468 143.07534964 -3.59082031 137.9284668 C-8.4946309 134.19162066 -13.29851374 130.3505862 -18.0625 126.4375 C-25.85490224 120.03718963 -33.8876426 113.98717867 -42 108 C-41.3863831 103.20293889 -39.98895647 98.97941504 -38.18359375 94.52368164 C-37.89554367 93.79897171 -37.60749359 93.07426178 -37.31071472 92.32759094 C-36.35859484 89.93616129 -35.39806246 87.54820585 -34.4375 85.16015625 C-33.76491741 83.47526926 -33.09288954 81.79016075 -32.42138672 80.10484314 C-30.64799337 75.65806109 -28.86757112 71.21412737 -27.08551025 66.77081299 C-25.30710726 62.33375502 -23.53442845 57.89441311 -21.76171875 53.45507812 C-19.70772439 48.31137672 -17.65342454 43.16780377 -15.59521484 38.02578735 C-11.4964435 27.78133991 -7.43337335 17.52462577 -3.47314453 7.2256012 C-2.99337158 5.9855558 -2.99337158 5.9855558 -2.50390625 4.72045898 C-2.23392822 4.01710922 -1.9639502 3.31375946 -1.68579102 2.58909607 C-1 1 -1 1 0 0 Z " fill="#E2E3E4" transform="translate(406,199)"/>
<path d="M0 0 C0.79566376 -0.0038269 1.59132751 -0.00765381 2.41110229 -0.01159668 C4.09732322 -0.01431902 5.78358614 -0.00693519 7.46972656 0.00976562 C10.02507473 0.03100388 12.57755683 0.01006589 15.1328125 -0.015625 C30.95953816 -0.04183751 30.95953816 -0.04183751 37.9296875 4.53125 C38.8784375 5.15 39.8271875 5.76875 40.8046875 6.40625 C45.03854523 10.64010773 46.16324755 14.46021043 46.4921875 20.34375 C46.38525593 26.06815338 44.75313852 29.35161051 41.2421875 33.7890625 C39.7291149 35.43394375 39.7291149 35.43394375 39.9296875 37.53125 C41.0021875 38.2325 42.0746875 38.93375 43.1796875 39.65625 C47.37588293 42.58422409 49.51838971 45.60423405 50.9296875 50.53125 C51.93332076 57.62910995 51.25414371 63.69707239 46.9296875 69.53125 C42.0479613 75.09591199 36.0114752 77.88359224 28.69247437 78.81637573 C26.41600519 78.93891735 24.15859803 78.97351031 21.87890625 78.96484375 C21.05767776 78.9700856 20.23644928 78.97532745 19.39033508 78.98072815 C17.67193729 78.98709883 15.9534956 78.98587634 14.23510742 78.97729492 C11.60582963 78.96871293 8.97867726 78.9977275 6.34960938 79.02929688 C4.67187565 79.03090744 2.99413809 79.03033414 1.31640625 79.02734375 C0.53408127 79.03857773 -0.24824371 79.04981171 -1.05427551 79.06138611 C-4.36333964 79.01894615 -6.56079275 78.9020139 -9.27642822 76.92591858 C-11.67791217 73.72016098 -11.57147986 71.69990745 -11.57202148 67.71484375 C-11.57742447 67.03793488 -11.58282745 66.361026 -11.58839417 65.66360474 C-11.60087652 63.43153832 -11.58439566 61.20076314 -11.56640625 58.96875 C-11.56656125 57.41463147 -11.56805043 55.86051256 -11.57081604 54.30639648 C-11.5721998 51.05142093 -11.55964643 47.79688614 -11.53686523 44.54199219 C-11.50848024 40.37214438 -11.51121801 36.20302883 -11.52395535 32.03312683 C-11.53091422 28.82460285 -11.52312094 25.61624778 -11.51069832 22.40774536 C-11.50618582 20.87037809 -11.50584527 19.33299268 -11.50976372 17.79562378 C-11.5126781 15.64592394 -11.49615998 13.49722901 -11.47436523 11.34765625 C-11.46896225 10.12506104 -11.46355927 8.90246582 -11.45799255 7.64282227 C-10.54115768 0.28418224 -6.58369126 -0.06962745 0 0 Z M0.9296875 9.53125 C0.9296875 17.45125 0.9296875 25.37125 0.9296875 33.53125 C4.99258758 33.61220816 9.05387317 33.67173645 13.1171875 33.71875 C14.26767578 33.74388672 15.41816406 33.76902344 16.60351562 33.79492188 C17.71533203 33.80458984 18.82714844 33.81425781 19.97265625 33.82421875 C21.50442505 33.84778442 21.50442505 33.84778442 23.06713867 33.87182617 C27.07823162 33.39460019 29.59503292 31.60490547 32.6875 29.1171875 C35.08059799 26.06184855 35.04240792 22.29743803 34.9296875 18.53125 C33.3903902 14.80453022 31.42962354 12.53121345 27.9296875 10.53125 C22.34404289 9.22586088 16.7528079 9.41895204 11.0546875 9.46875 C6.0428125 9.4996875 6.0428125 9.4996875 0.9296875 9.53125 Z M0.9296875 43.53125 C0.9296875 51.78125 0.9296875 60.03125 0.9296875 68.53125 C4.95028696 68.60039407 8.96935759 68.66004137 12.99023438 68.69604492 C14.35586566 68.71106428 15.72144926 68.73148608 17.08691406 68.75756836 C19.05772655 68.79425137 21.02890158 68.80943551 23 68.82421875 C24.18352051 68.8399292 25.36704102 68.85563965 26.58642578 68.87182617 C31.10464715 68.41155753 34.46691596 66.94358115 37.7421875 63.78125 C40.11738408 59.28087752 40.25087725 55.71563719 38.9296875 50.84375 C36.51614151 46.84631445 34.30678125 44.96017239 29.9296875 43.53125 C24.94502692 43.05054665 19.99128718 43.15311445 14.9921875 43.28125 C13.62697929 43.30134327 12.26174257 43.31958906 10.89648438 43.3359375 C7.57391278 43.38289964 4.25170765 43.45463711 0.9296875 43.53125 Z " fill="#E4E6E6" transform="translate(480.0703125,718.46875)"/>
<path d="M0 0 C1.97900391 1.62597656 1.97900391 1.62597656 3.8515625 3.890625 C4.53895508 4.71498047 5.22634766 5.53933594 5.93457031 6.38867188 C9.15372935 10.45866301 12.29862645 14.5710288 15.375 18.75 C16.68945091 20.52001656 18.00455526 22.28954805 19.3203125 24.05859375 C19.95098633 24.9079248 20.58166016 25.75725586 21.23144531 26.63232422 C23.53737202 29.71941384 25.88825787 32.76788994 28.25 35.8125 C33.60868585 42.79289341 38.79595251 49.9035716 44 57 C44.33 38.52 44.66 20.04 45 1 C48.63 1 52.26 1 56 1 C56.04627591 10.87460788 56.08184499 20.7491901 56.10362434 30.6238842 C56.11407566 35.20876766 56.12825935 39.79357711 56.15087891 44.37841797 C56.17255936 48.80042374 56.18455846 53.22235819 56.18975449 57.64441299 C56.19345889 59.33417001 56.20069237 61.02392298 56.21146011 62.71364975 C56.22591143 65.07464889 56.22798064 67.4353507 56.22705078 69.79638672 C56.23424133 70.49985229 56.24143188 71.20331787 56.24884033 71.92810059 C56.22810432 76.77189568 56.22810432 76.77189568 54 79 C50.6484375 79.421875 50.6484375 79.421875 47 79 C44.6640625 77.015625 44.6640625 77.015625 42.625 74.25 C41.86316406 73.24195313 41.10132813 72.23390625 40.31640625 71.1953125 C39.55199219 70.14085937 38.78757813 69.08640625 38 68 C36.52167822 66.04102879 35.04251523 64.08269211 33.5625 62.125 C32.43908203 60.61292969 32.43908203 60.61292969 31.29296875 59.0703125 C29.01690047 56.02262993 26.70254955 53.00850207 24.375 50 C17.5082012 41.05719226 10.76502956 32.02003942 4 23 C3.67 41.48 3.34 59.96 3 79 C-0.63 79 -4.26 79 -8 79 C-8.06945503 69.14268821 -8.12278834 59.28543446 -8.15543652 49.42792797 C-8.17110459 44.85087134 -8.19236359 40.27398189 -8.22631836 35.69702148 C-8.25887126 31.28148565 -8.27684441 26.8661108 -8.28463173 22.45046425 C-8.29018258 20.76431048 -8.30102185 19.0781657 -8.31719017 17.39208031 C-8.33891075 15.03357146 -8.34196924 12.67573115 -8.34057617 10.31713867 C-8.351362 9.61726837 -8.36214783 8.91739807 -8.3732605 8.19631958 C-8.35489092 5.32952163 -8.31723916 3.44754221 -6.63163757 1.06959534 C-4.24180196 -0.49702526 -2.79778361 -0.47191531 0 0 Z " fill="#E5E6E7" transform="translate(196,718)"/>
<path d="M0 0 C1.75183594 -0.01160156 1.75183594 -0.01160156 3.5390625 -0.0234375 C10.51871643 -0.00778805 16.83219795 0.63814867 23.625 2.25 C23.295 5.55 22.965 8.85 22.625 12.25 C21.90022461 12.17894043 21.17544922 12.10788086 20.42871094 12.03466797 C17.0787821 11.71544949 13.72713328 11.42013347 10.375 11.125 C9.23546875 11.01285156 8.0959375 10.90070312 6.921875 10.78515625 C-1.8297096 10.03928256 -11.54180946 9.60851609 -19.375 14.25 C-21.92094764 17.68702931 -21.73899464 21.10046112 -21.375 25.25 C-20.06313099 28.45679091 -18.89859333 29.88771572 -16.0546875 31.85546875 C-10.63404378 33.90978914 -5.3763799 33.74379751 0.375 33.8125 C2.64077237 33.84682988 4.90644005 33.88937329 7.171875 33.94140625 C8.66992676 33.95989624 8.66992676 33.95989624 10.19824219 33.97875977 C12.625 34.25 12.625 34.25 14.625 36.25 C14.9375 39.25 14.9375 39.25 14.625 42.25 C11.1552065 44.56319567 9.76552995 44.50064706 5.671875 44.5234375 C4.49496094 44.5440625 3.31804688 44.5646875 2.10546875 44.5859375 C-0.36581717 44.61181484 -2.83719459 44.63014186 -5.30859375 44.640625 C-12.12962042 44.77451647 -16.94840537 44.91179017 -22.375 49.25 C-24.99121595 52.81371037 -24.51559639 55.92962028 -23.90234375 60.1328125 C-23.11902723 63.27768328 -22.06859358 64.45427094 -19.375 66.25 C-13.45621554 68.86122844 -8.7461235 69.7061047 -2.3125 69.5625 C-1.49483154 69.55412109 -0.67716309 69.54574219 0.1652832 69.53710938 C7.7502626 69.38981392 15.14690504 68.50193817 22.625 67.25 C23.285 70.55 23.945 73.85 24.625 77.25 C8.77284201 81.01684942 -10.24484121 83.75985984 -25.375 76.25 C-30.95184409 72.66805244 -34.63427205 68.7777298 -36.375 62.25 C-37.22045219 55.11181507 -36.69650363 49.15559178 -32.375 43.25 C-28.175 39.25 -28.175 39.25 -25.375 39.25 C-25.85710938 38.66992188 -26.33921875 38.08984375 -26.8359375 37.4921875 C-31.69218016 31.48630372 -34.70391594 27.24408372 -34.25 19.3125 C-33.49672796 13.67565528 -32.05859845 9.48732376 -27.61328125 5.78125 C-18.97652082 -0.05577473 -10.11121585 -0.06652116 0 0 Z " fill="#E4E6E7" transform="translate(700.375,717.75)"/>
<path d="M0 0 C3.42871094 0.00439453 3.42871094 0.00439453 7 1 C8.81347656 3.53076172 8.81347656 3.53076172 10.140625 6.9296875 C10.51402008 7.85023674 10.51402008 7.85023674 10.8949585 8.78938293 C11.70679607 10.80838454 12.47794529 12.84049221 13.25 14.875 C13.80716753 16.28078817 14.36709594 17.68548503 14.9296875 19.08911133 C16.08000086 21.96988698 17.21505768 24.85596387 18.33789062 27.74755859 C20.35877847 32.94061638 22.47274546 38.0937185 24.58886719 43.24853516 C26.33054799 47.49305347 28.05283574 51.74521134 29.765625 56.00146484 C30.62379756 58.08613165 31.51150271 60.1587855 32.421875 62.22119141 C33.11023438 63.79199463 33.11023438 63.79199463 33.8125 65.39453125 C34.23144531 66.3275708 34.65039062 67.26061035 35.08203125 68.22192383 C36.11355469 71.34365393 36.30817149 73.73286471 36 77 C34 79 34 79 31.25390625 79.39453125 C27.03711643 78.88325181 25.22124383 77.35683917 21.9375 74.6875 C21.38022217 74.24035645 20.82294434 73.79321289 20.2487793 73.33251953 C18.48358544 71.90620527 16.73942138 70.45760213 15 69 C14.43764648 68.52997559 13.87529297 68.05995117 13.29589844 67.57568359 C10.55046278 65.27344654 7.81989405 62.95459532 5.09765625 60.625 C1.41162329 57.48167461 -2.37146549 54.46448695 -6.171875 51.4609375 C-8 50 -8 50 -9 49 C-12.96 58.9 -16.92 68.8 -21 79 C-24.96 79 -28.92 79 -33 79 C-30.95374198 72.66021517 -28.66128947 66.49661557 -26.12109375 60.33984375 C-25.75242691 59.43967026 -25.38376007 58.53949677 -25.00392151 57.61204529 C-23.81818785 54.71925746 -22.62811458 51.82828199 -21.4375 48.9375 C-20.62161802 46.95203776 -19.80586321 44.96652327 -18.99023438 42.98095703 C-17.38984586 39.08690644 -15.78733006 35.19374127 -14.18310547 31.30126953 C-12.58714937 27.42823764 -10.99672714 23.55300319 -9.41139221 19.6756134 C-8.27842783 16.90702706 -7.13900977 14.14110361 -6 11.375 C-5.41496704 9.94015259 -5.41496704 9.94015259 -4.81811523 8.47631836 C-4.46563721 7.62561768 -4.11315918 6.77491699 -3.75 5.8984375 C-3.45609375 5.18349121 -3.1621875 4.46854492 -2.859375 3.73193359 C-2 2 -2 2 0 0 Z M2 18 C-0.64 24.93 -3.28 31.86 -6 39 C1.89705249 45.81314332 9.7889991 52.56741865 18 59 C19.40834786 56.77234988 19.40834786 56.77234988 17.76831055 53.30053711 C17.14957468 51.70616312 16.52170595 50.11531534 15.88671875 48.52734375 C15.55710648 47.68909561 15.2274942 46.85084747 14.88789368 45.98719788 C14.18791223 44.21287002 13.48403776 42.44007386 12.77661133 40.66870117 C11.69223599 37.9493766 10.62362411 35.22423524 9.55664062 32.49804688 C8.87593834 30.77827413 8.19432803 29.05886046 7.51171875 27.33984375 C7.19079758 26.52007553 6.8698764 25.70030731 6.53923035 24.85569763 C5.1581226 20.69721169 5.1581226 20.69721169 2 18 Z " fill="#E5E6E7" transform="translate(108,718)"/>
<path d="M0 0 C1.73032471 0.00193359 1.73032471 0.00193359 3.49560547 0.00390625 C11.82367761 0.09767765 19.43554378 0.8682661 27.4375 3.3125 C26.7775 6.6125 26.1175 9.9125 25.4375 13.3125 C23.931875 12.9825 22.42625 12.6525 20.875 12.3125 C14.45945944 11.24580127 8.12270265 11.05349173 1.625 11 C0.63491943 10.98259766 -0.35516113 10.96519531 -1.37524414 10.94726562 C-7.18498121 10.95118616 -11.48800251 11.37826676 -16.5625 14.3125 C-17.89800847 17.15877591 -17.89800847 17.15877591 -17.5625 20.3125 C-13.41237474 28.92266248 -2.92523802 32.17698472 5.33325195 35.96508789 C24.65446133 44.8577442 24.65446133 44.8577442 29 53.375 C30.06137721 60.50138985 29.52507097 65.36254462 25.4375 71.3125 C20.52520309 76.96291407 14.39920066 79.69497503 7.01489258 80.61401367 C4.48101532 80.75048232 1.97482926 80.77879543 -0.5625 80.75 C-1.46661621 80.74605225 -2.37073242 80.74210449 -3.30224609 80.73803711 C-13.11495811 80.53235055 -22.27796858 78.40734381 -31.5625 75.3125 C-31.10427532 71.84308454 -30.67118317 68.63854951 -29.5625 65.3125 C-28.304375 65.60125 -27.04625 65.89 -25.75 66.1875 C-5.36142443 70.95843671 -5.36142443 70.95843671 14.4375 66.3125 C16.92586965 62.57994552 16.97976552 60.72809065 16.4375 56.3125 C12.6148967 52.63010801 8.04955669 50.3486091 3.375 47.9375 C2.62420166 47.54393311 1.87340332 47.15036621 1.09985352 46.74487305 C-3.27333623 44.46188969 -7.68331613 42.27219157 -12.125 40.125 C-19.22645437 36.56940214 -25.68840479 33.10558837 -28.9375 25.51953125 C-30.49201857 20.03013754 -30.56114749 14.58558142 -27.9375 9.4375 C-20.72555125 -0.05190626 -10.968077 -0.05026185 0 0 Z " fill="#E5E6E7" transform="translate(330.5625,717.6875)"/>
<path d="M0 0 C3.96 0 7.92 0 12 0 C12 22.44 12 44.88 12 68 C25.53 68 39.06 68 53 68 C53 71.3 53 74.6 53 78 C46.0949319 78.09883934 39.1902751 78.17145586 32.28466797 78.21972656 C29.93531116 78.23984814 27.58600446 78.26714851 25.23681641 78.30175781 C21.86087685 78.3502504 18.48559914 78.37296357 15.109375 78.390625 C14.05820496 78.41127014 13.00703491 78.43191528 11.92401123 78.45318604 C10.94329651 78.45348816 9.96258179 78.45379028 8.95214844 78.45410156 C8.09055115 78.46298401 7.22895386 78.47186646 6.34124756 78.48101807 C3.0476536 77.80433687 1.93872623 76.73467654 0 74 C-0.48101807 70.70965576 -0.48101807 70.70965576 -0.45410156 66.75292969 C-0.45468567 66.03058136 -0.45526978 65.30823303 -0.45587158 64.56399536 C-0.4530908 62.18279512 -0.42200139 59.8028558 -0.390625 57.421875 C-0.38316253 55.76850061 -0.37746963 54.11511736 -0.37347412 52.46173096 C-0.3582181 48.11482222 -0.31893695 43.76845001 -0.2746582 39.42175293 C-0.23370458 34.98436745 -0.21546294 30.54689508 -0.1953125 26.109375 C-0.1524423 17.40600407 -0.08419184 8.70306882 0 0 Z " fill="#E4E6E6" transform="translate(575,719)"/>
<path d="M0 0 C3.63 0 7.26 0 11 0 C11 25.74 11 51.48 11 78 C7.37 78 3.74 78 0 78 C0 52.26 0 26.52 0 0 Z " fill="#E5E6E7" transform="translate(407,719)"/>
</svg>
